<?xml version="1.0" encoding="UTF-8"?>
<svg id="_레이어_1" xmlns="http://www.w3.org/2000/svg" version="1.1" viewBox="0 0 328.3 175.9">
  <!-- Generator: Adobe Illustrator 29.2.1, SVG Export Plug-In . SVG Version: 2.1.0 Build 116)  -->
  <path d="M20.7,86.8l54.6,54.6c3.6,3.5,9.3,3.5,12.9,0,3.6-3.5,3.6-9.3,0-12.9l-39-39.1h187.1c36.4,0,54.6,33.6,54.6,63.7s4.1,9.1,9.1,9.1,9.1-4.1,9.1-9.1c0-40.1-18.2-81.9-72.8-81.9H49.1l39-39c3.6-3.5,3.6-9.3,0-12.9-3.5-3.5-9.3-3.5-12.9,0l-54.6,54.6c-3.5,3.5-3.5,9.3,0,12.9Z"/>
</svg>