<?xml version="1.0" encoding="UTF-8"?>
<svg id="_레이어_1" data-name="레이어_1" xmlns="http://www.w3.org/2000/svg" version="1.1" viewBox="0 0 907.14 2103.46">
  <!-- Generator: Adobe Illustrator 29.2.1, SVG Export Plug-In . SVG Version: 2.1.0 Build 116)  -->
  <defs>
    <style>
      .st0 {
        fill: #f19ca6;
      }

      .st1 {
        fill: #82c1ea;
      }

      .st2 {
        fill: #fcc800;
      }

      .st3 {
        fill: #7ac281;
      }

      .st4 {
        fill: #eb5c28;
      }

      .st5 {
        fill: #9ac838;
      }

      .st6 {
        fill: #551f11;
      }

      .st7 {
        fill: #fdd23e;
      }

      .st8 {
        fill: #9fcf86;
      }

      .st9 {
        fill: #fabe00;
      }
    </style>
  </defs>
  <g>
    <g>
      <path class="st6" d="M704.09,2022.37c.16.29.26.59.29.9.04.31.01.62-.09.93-.1.32-.28.61-.53.9-.25.29-.53.5-.83.64-.3.14-.61.21-.91.2-.31,0-.62-.06-.92-.19-.31-.13-.6-.31-.87-.56-.27-.24-.48-.5-.65-.79-.17-.29-.27-.59-.3-.9-.04-.31,0-.62.09-.94.1-.31.27-.62.53-.9.25-.28.53-.49.83-.63.3-.14.61-.2.92-.2.31,0,.62.06.93.19.31.13.6.31.87.55.27.24.49.51.65.8ZM702.18,2022.04c-.19-.09-.38-.14-.56-.16-.19-.02-.37,0-.55.07-.18.06-.34.18-.48.34-.15.17-.24.34-.28.52-.04.18-.04.36,0,.55s.12.36.23.54c.11.18.25.34.42.48.17.15.35.27.53.36.19.09.37.14.56.16.19.02.36,0,.54-.07s.33-.18.48-.34c.14-.16.24-.33.28-.52.04-.18.05-.36,0-.55s-.11-.36-.22-.54c-.11-.18-.25-.34-.42-.49-.17-.15-.34-.26-.53-.35ZM706.23,2019.55l-.91,1.03,3.05,2.7-.74.84-5.83-5.15.74-.84,2.08,1.84.91-1.03.7.62Z"/>
      <path class="st6" d="M710.44,2016.18c.13.31.18.62.18.93,0,.31-.06.61-.2.91-.14.3-.35.57-.63.82-.29.25-.59.43-.91.53s-.63.13-.93.09c-.31-.03-.6-.13-.89-.3-.29-.17-.55-.39-.79-.66-.24-.27-.42-.56-.55-.86-.13-.31-.19-.62-.19-.93,0-.31.07-.62.2-.92.13-.3.35-.58.63-.83.28-.25.58-.42.9-.52.32-.1.63-.12.94-.08.31.04.61.14.9.3.29.16.56.38.79.65.24.27.42.57.55.88ZM708.58,2015.61c-.18-.11-.36-.19-.54-.23-.18-.04-.37-.04-.55,0-.18.04-.36.13-.52.27-.17.15-.28.31-.34.48-.06.18-.09.36-.07.54.02.19.07.37.16.56.09.19.21.37.36.53.15.17.31.31.48.43.17.11.35.19.53.23.18.04.36.04.54,0,.18-.04.35-.14.52-.28.16-.14.28-.3.34-.48s.09-.36.08-.54c-.02-.19-.07-.37-.15-.56-.09-.19-.21-.37-.36-.54-.15-.17-.31-.31-.49-.42ZM714.82,2017.39l-.84.74-5.14-5.84.84-.74,5.14,5.84Z"/>
      <path class="st6" d="M716.81,2007.43l-3.52,2.4.49.72c.06.08.11.13.18.15.06.02.14,0,.24-.07l1.68-1.15c.31-.21.58-.42.81-.63.23-.21.44-.44.64-.69l.66.55c-.18.25-.4.5-.66.74-.26.24-.57.49-.94.75l-1.92,1.31c-.34.23-.62.34-.85.33-.23-.01-.44-.17-.65-.47l-1.1-1.6,4.46-3.04.49.72ZM719.72,2009.63l-6.21,4.24-.5-.73,6.21-4.24.5.73ZM716.74,2016.55c-.17,0-.33-.12-.48-.34l-.86-1.26,3.76-2.57-.3-.44-3.76,2.57-.48-.71,4.17-2.85c.2-.14.38-.18.53-.12.15.06.27.18.36.35l.58,1.08c.04.09.06.16.06.23,0,.06-.06.13-.15.19l-3.36,2.29.31.45,2.71-1.85c.16-.11.33-.23.5-.37.17-.13.34-.29.51-.48l.61.53c-.21.26-.42.47-.61.63-.19.15-.38.3-.58.43l-2.93,2c-.21.14-.4.21-.57.21Z"/>
      <path class="st6" d="M724.5,2006.83c.05.33.03.65-.05.94-.07.3-.21.58-.42.84-.21.26-.48.47-.82.65-.34.18-.68.27-1.01.29-.33.02-.64-.03-.92-.14-.29-.11-.55-.28-.79-.51-.24-.23-.44-.51-.61-.83-.16-.32-.27-.64-.32-.97-.05-.33-.03-.65.04-.95.08-.3.22-.58.42-.84.2-.26.48-.48.82-.65.34-.17.67-.27,1-.29.33-.02.64.03.93.15.29.11.56.28.8.51.24.23.45.5.61.82.17.32.27.65.32.98ZM722.84,2005.83c-.14-.15-.3-.27-.47-.35-.17-.08-.35-.13-.53-.13-.19,0-.38.04-.57.14-.2.1-.35.23-.45.39-.1.16-.17.33-.2.51-.03.18-.02.38.02.58.04.2.12.41.22.6.1.2.23.38.37.53.14.15.29.27.46.35.17.08.34.13.53.13.18,0,.38-.05.57-.15.19-.1.34-.22.45-.38.11-.15.18-.32.21-.51.03-.18.03-.38-.01-.58-.04-.2-.11-.41-.21-.61-.1-.2-.22-.37-.37-.52ZM728.46,2009.07l-1,.51-3.56-6.91,1-.51,3.56,6.91Z"/>
      <path class="st6" d="M733.78,2000.39l-.55.18c.12.11.22.23.32.36.09.14.17.29.22.46.09.27.11.52.09.77-.03.24-.1.47-.21.68-.12.2-.27.38-.46.53-.19.15-.4.26-.64.34-.25.08-.49.11-.74.1-.24-.01-.47-.07-.68-.17-.21-.1-.4-.25-.56-.43-.16-.18-.28-.41-.37-.67-.05-.17-.08-.33-.09-.5,0-.16,0-.33.05-.48l-.54.17-.27-.83,1.44-.46c.03-.11.03-.22,0-.33-.02-.11-.05-.2-.08-.3-.02-.04-.04-.08-.07-.14s-.07-.11-.1-.16l.86-.58c.06.08.11.16.15.24.04.08.08.16.1.24.04.13.06.26.07.38,0,.12,0,.24-.01.34l1.79-.57.26.83ZM732.39,2001.13c-.2-.11-.42-.13-.67-.05-.25.08-.42.22-.52.43-.1.21-.11.44-.03.71.09.28.24.47.44.58.2.11.43.12.68.05.25-.08.42-.22.52-.43.1-.21.1-.45.01-.73-.08-.26-.23-.45-.43-.56ZM738.15,2005.22c-.05.27-.14.53-.28.76-.15.24-.34.45-.58.62-.24.17-.51.31-.8.41-.3.1-.6.14-.9.14-.3,0-.58-.06-.83-.16-.25-.1-.48-.26-.67-.46-.19-.2-.34-.45-.43-.74-.09-.29-.12-.58-.08-.85.04-.28.13-.53.28-.76.15-.23.35-.44.59-.62.24-.18.51-.32.82-.41.3-.1.6-.14.9-.13.3,0,.57.06.83.16.25.1.48.26.67.46.19.2.34.45.43.74.09.29.12.57.07.85ZM737.92,2002.47l-.96.31-.63-1.97-.81.26.5,1.56-.97.31-1.34-4.17.97-.31.57,1.77.81-.26-.57-1.77.96-.31,1.47,4.58ZM736.44,2004.04c-.28-.13-.59-.14-.92-.04-.34.11-.59.3-.74.57-.15.27-.18.56-.08.88.1.32.29.55.57.67.28.13.59.13.93.02.33-.11.58-.29.73-.56.15-.26.18-.56.08-.88-.1-.32-.29-.54-.57-.67Z"/>
      <path class="st6" d="M744.52,1996.14l.51,2.74c-.22.19-.51.37-.87.56-.36.19-.71.31-1.06.37l-.14.03.13.72,3.22-.6.16.85-7.39,1.37-.16-.85,3.05-.57-.13-.72-.96.18c-.35.06-.64.05-.87-.04-.24-.09-.38-.31-.45-.65l-.44-2.39,1.09-.2.15.82,3.21-.6-.15-.82,1.09-.2ZM746.1,2004.62l-1.03.19-.31-1.69c-.02-.12-.06-.21-.11-.25-.05-.05-.13-.06-.25-.04l-4.23.79-.16-.88,4.95-.92c.26-.05.45-.02.58.1.13.11.22.28.25.51l.3,2.2ZM743.33,1998.84c.17-.07.33-.16.5-.28l-.1-.56-3.21.6.1.56c.02.09.05.15.09.18.04.03.12.03.21.02l1.89-.35c.18-.03.35-.08.52-.16Z"/>
      <path class="st6" d="M752.07,1997.21l-5.02.29-.05-.88,1.8-.1c.05-.09.08-.2.09-.3.02-.11.01-.23-.02-.38,0-.04-.02-.09-.04-.16-.02-.07-.04-.13-.06-.19l1.06-.38c.04.1.08.19.11.3.03.1.05.2.05.29,0,.14,0,.27-.03.4-.03.13-.06.25-.12.36l2.16-.13.05.88ZM751.65,1999.86c-.1.21-.24.4-.42.55-.19.15-.41.28-.66.37-.25.09-.52.14-.81.16-.29.02-.57,0-.83-.06-.26-.06-.49-.15-.69-.28-.2-.13-.36-.3-.48-.51-.12-.2-.19-.44-.21-.72-.02-.27.02-.51.12-.72.09-.21.23-.4.41-.55.18-.15.4-.28.65-.36.25-.09.53-.14.83-.16.61-.04,1.12.08,1.54.36.42.27.64.67.67,1.2.02.27-.03.52-.13.73ZM748.98,2003.9c-.15-.18-.24-.4-.25-.66l-.1-1.72,1.12-.06.09,1.52c0,.09.03.16.06.2.03.04.1.06.19.05l2.32-.13c.39-.02.73-.06,1.03-.12.3-.06.63-.15,1-.28l.26.83c-.42.16-.78.27-1.09.34-.31.06-.65.11-1.03.13l-2.78.16c-.39.02-.66-.05-.82-.23ZM750.36,1998.6c-.21-.12-.46-.16-.74-.15-.28.02-.52.09-.71.23-.19.14-.28.35-.27.63.02.29.13.49.34.61.21.11.45.16.73.14.29-.02.53-.09.72-.23.19-.14.28-.35.27-.64-.02-.28-.13-.48-.34-.59ZM755.42,1998.78l-1.35.08.15,2.58-1.11.06-.34-5.96,1.11-.06.14,2.48,1.35-.08.05.9Z"/>
      <path class="st6" d="M761.55,2003.98l.25-2.36-3.15-.33.09-.89,7.48.79-.09.89-3.19-.34-.25,2.36-1.14-.12ZM765.31,1999.56c-.41.13-.83.23-1.27.27s-.91.05-1.41,0l-1.52-.16c-.43-.05-.74-.17-.95-.37-.21-.2-.29-.48-.25-.85l.28-2.62,5.46.58-.33,3.15ZM761.04,1998.37c-.01.14,0,.24.05.3s.15.09.29.11l1.32.14c.27.03.53.03.78.01.25-.02.51-.06.78-.13l.17-1.61-3.23-.34-.16,1.52Z"/>
      <path class="st6" d="M771.47,2001.69c-.16.18-.35.31-.56.41-.22.09-.47.15-.74.16-.27.01-.54-.01-.82-.08-.28-.07-.54-.17-.78-.29-.23-.13-.43-.28-.58-.47-.15-.18-.26-.39-.32-.62-.06-.23-.06-.48,0-.75.06-.26.17-.48.32-.66.15-.18.34-.32.55-.41.22-.1.46-.15.73-.17.27-.01.55.01.84.08.6.14,1.05.4,1.38.78.32.38.42.83.3,1.34-.06.27-.17.49-.33.66ZM767.75,2004.8c-.1-.21-.11-.45-.05-.71l.4-1.68,1.09.26-.35,1.48c-.02.09-.02.16,0,.21.02.05.08.08.17.1l2.26.53c.38.09.72.15,1.03.18.3.03.65.03,1.03.02l.02.87c-.45.03-.83.04-1.14.01-.31-.03-.65-.08-1.03-.17l-2.71-.64c-.38-.09-.62-.24-.72-.45ZM772.62,1999.26l-4.89-1.15.2-.85,1.76.41c.07-.08.13-.16.18-.26.05-.1.08-.22.09-.36,0-.04,0-.09,0-.16,0-.07,0-.14,0-.2l1.13-.07c.02.1.02.21.02.32,0,.11-.01.2-.03.29-.03.13-.08.26-.14.37-.06.12-.13.22-.21.32l2.11.5-.2.86ZM770.59,2000.11c-.17-.17-.39-.29-.67-.35-.27-.06-.52-.06-.75.02-.23.08-.37.25-.43.52-.07.28-.02.51.15.68.17.17.39.28.66.35.28.07.53.06.75-.01.22-.07.37-.25.44-.54.06-.27.01-.49-.15-.66ZM775.38,2001.73l-1.32-.31-.59,2.52-1.08-.25,1.37-5.81,1.08.25-.57,2.42,1.32.31-.21.87Z"/>
      <path class="st6" d="M779.77,1999.58c.02.23.01.43-.01.6-.03.17-.07.35-.14.55-.05.13-.1.25-.17.37-.06.12-.13.24-.21.35.27.12.47.25.6.41.13.15.23.33.31.53.08.26.15.52.23.79.08.27.15.53.22.79l-.95.31c-.04-.16-.08-.31-.12-.45-.03-.14-.07-.27-.11-.39-.03-.12-.06-.24-.09-.34-.03-.1-.06-.2-.08-.3-.05-.15-.12-.29-.19-.41-.07-.12-.2-.23-.36-.34-.34.29-.73.54-1.18.75-.44.21-.92.37-1.42.48l-.26-1c.75-.16,1.35-.41,1.8-.76.45-.34.76-.74.93-1.2.05-.12.08-.25.1-.38.02-.13.02-.27.02-.42l1.09.05ZM783.6,2001.17l-.7,1.84,1.27.48-.31.83-1.27-.48-.36.95c-.13.34-.29.6-.49.78-.2.19-.44.32-.71.41.07.21.1.42.1.65,0,.23-.04.45-.13.68-.11.29-.27.52-.47.71-.21.19-.44.33-.7.43-.27.09-.55.14-.84.13-.3,0-.59-.07-.88-.18-.3-.11-.56-.26-.79-.46-.23-.19-.41-.41-.55-.66-.13-.24-.21-.5-.24-.78-.03-.28.01-.56.12-.85.11-.29.26-.53.47-.72.21-.19.44-.34.7-.44.27-.09.55-.14.85-.13.3,0,.6.06.9.18.2.08.39.17.55.29.17.12.32.24.45.39.14-.07.26-.17.35-.3.09-.13.18-.31.27-.54l1.36-3.61,1.04.39ZM779.95,2006c-.13-.28-.35-.48-.68-.61-.33-.13-.65-.13-.93,0-.29.12-.49.35-.62.68-.12.33-.12.63.02.91.14.28.37.48.71.61.33.12.63.13.91,0,.28-.12.48-.35.6-.67.12-.33.12-.63,0-.91Z"/>
      <path class="st6" d="M788.42,2003.3c-.01.23-.04.43-.09.59-.05.16-.12.34-.21.53-.06.12-.14.24-.21.35-.08.11-.16.22-.26.32.25.15.43.31.55.48.11.17.19.36.23.57.04.27.08.54.13.81.04.27.08.54.11.81l-.98.18c-.02-.17-.04-.32-.06-.46-.02-.14-.04-.27-.06-.4-.01-.13-.03-.24-.05-.35-.02-.11-.03-.21-.04-.31-.03-.16-.08-.3-.14-.43-.06-.13-.16-.25-.32-.38-.37.24-.79.44-1.26.59-.47.15-.96.25-1.47.3l-.13-1.02c.76-.06,1.39-.24,1.88-.52.49-.28.85-.64,1.08-1.07.06-.11.11-.24.15-.37.04-.13.06-.27.07-.41l1.07.19ZM792.01,2005.38l-.93,1.74,1.2.64-.42.78-1.2-.64-.48.9c-.17.32-.36.55-.58.71-.22.16-.47.26-.76.31.04.21.05.43.02.66s-.1.44-.21.66c-.14.27-.33.49-.56.65-.23.16-.48.27-.75.34-.27.06-.56.07-.85.02-.29-.05-.58-.14-.85-.29-.28-.15-.52-.33-.73-.55-.2-.22-.36-.46-.46-.72-.1-.25-.15-.52-.14-.8.01-.28.09-.56.23-.83.14-.27.33-.49.56-.65.23-.17.48-.28.75-.34.28-.06.56-.07.86-.02.3.04.59.14.87.29.19.1.36.22.51.36s.29.28.4.44c.15-.05.28-.14.39-.25.11-.12.22-.28.33-.5l1.81-3.4.98.52ZM787.76,2009.69c-.09-.29-.29-.52-.6-.69-.32-.17-.62-.21-.92-.12-.3.09-.53.28-.7.59-.17.31-.2.61-.1.9.1.29.31.52.62.69.31.17.61.21.9.12.29-.08.52-.28.69-.59.17-.31.2-.61.11-.91Z"/>
      <path class="st6" d="M792.52,2015.62c-.05-.17,0-.35.17-.57l.93-1.21,3.62,2.78.32-.42-3.62-2.78.52-.68,4,3.07c.2.15.29.31.28.46-.01.16-.08.31-.22.45l-.85.88c-.07.07-.14.11-.2.13-.06.01-.14-.01-.23-.08l-3.23-2.48-.33.43,2.6,2c.15.12.32.24.5.36.18.12.38.23.61.33l-.31.74c-.32-.12-.58-.25-.78-.38-.21-.13-.4-.27-.59-.41l-2.82-2.16c-.2-.15-.33-.31-.38-.48ZM798.35,2009.55l-.98,1.28c-.06.08-.09.15-.1.21,0,.07.03.13.12.19l1.34,1.03c.27.21.58.42.95.65.36.23.74.4,1.14.53l-.35.8c-.41-.14-.77-.31-1.1-.5-.32-.19-.64-.41-.95-.64l-.4.52,2.56,1.97-.53.69-5.96-4.58.53-.69,2.5,1.92.4-.52-.93-.71c-.29-.22-.45-.44-.48-.67-.03-.22.05-.46.24-.71l1.12-1.46.89.68Z"/>
      <path class="st6" d="M804.17,2019.96c-.3.15-.6.23-.91.25-.31.03-.62-.02-.93-.14-.31-.12-.6-.31-.87-.57-.27-.27-.47-.56-.59-.86-.12-.31-.17-.62-.15-.92.01-.31.09-.61.23-.91.14-.3.35-.58.6-.84.25-.25.53-.46.82-.61.3-.15.6-.24.92-.26s.62.02.93.14c.31.11.6.3.87.57.27.26.46.55.58.86.12.31.17.62.15.93-.02.31-.1.62-.24.92-.14.3-.34.58-.59.84-.26.26-.53.46-.83.61ZM804.61,2018.07c.1-.18.16-.37.19-.55.03-.18.01-.37-.04-.55-.05-.18-.16-.35-.31-.5-.16-.16-.33-.26-.51-.31-.18-.05-.36-.06-.55-.03-.18.03-.37.1-.55.2-.18.1-.35.24-.5.39-.16.16-.29.33-.39.51-.1.18-.16.36-.19.55-.03.18-.01.36.04.54.05.18.16.34.32.5.15.15.32.25.5.31.18.05.36.07.55.04.18-.03.37-.09.55-.19.18-.1.35-.23.51-.39.16-.16.28-.33.38-.51ZM803.29,2024.42l-.8-.79,5.46-5.55.8.79-5.46,5.55Z"/>
      <path class="st6" d="M812.08,2023.38l-3.98,3.15c-.3-.1-.58-.22-.85-.36s-.51-.35-.71-.61l-.54-.69c-.21-.27-.31-.52-.3-.75.01-.24.15-.46.41-.66l3.71-2.93.65.82-1.49,1.18.99,1.25,1.49-1.18.64.8ZM807.51,2025.2c.14.1.28.16.4.17l1.32-1.04-.99-1.25-1.35,1.07c-.07.06-.11.11-.12.16,0,.05.02.11.08.19l.35.44c.06.08.16.17.31.27ZM806.91,2028.54l5.95-4.7.65.82-2.19,1.73.63.8,2.19-1.73.65.82-6.1,4.82-.65-.82,3.16-2.5-.63-.8-3.01,2.38-.65-.82Z"/>
      <path class="st6" d="M815.54,2036.57l-1.69-2.81-.48.29.89,1.48c.12.19.15.37.09.52-.06.15-.21.29-.46.42l-1.74.86c-.11.05-.2.06-.28.02-.08-.03-.15-.1-.22-.21l-2.03-3.36c-.16-.27-.25-.54-.26-.81-.01-.27.14-.5.46-.69l1.81-1.09,1.14,1.89.48-.29-1.6-2.66.75-.45,3.88,6.43-.75.45ZM812.12,2036.2l1.1-.67-1.77-2.93-.84.51c-.1.06-.16.12-.17.18-.01.06,0,.13.06.22l1.62,2.69ZM816.79,2033.83c-.27.01-.52-.03-.76-.13-.24-.1-.47-.25-.68-.45-.21-.2-.4-.43-.56-.7-.17-.27-.29-.55-.37-.83-.08-.28-.11-.56-.08-.82.02-.26.1-.51.24-.74.14-.23.34-.42.61-.58.27-.16.53-.25.8-.26.26-.01.52.03.76.13.24.1.48.25.69.46.22.2.41.44.57.71.17.27.28.55.36.83.08.28.1.55.08.82-.03.26-.11.5-.24.73-.14.23-.34.42-.61.58-.27.16-.53.25-.8.26ZM817.46,2031.94c.04-.28-.03-.58-.22-.88-.18-.31-.41-.51-.69-.62-.27-.11-.54-.08-.8.08-.27.16-.42.39-.45.68-.03.29.05.59.23.89.18.3.41.5.67.6.27.1.53.07.8-.09.26-.16.41-.38.45-.66Z"/>
    </g>
    <g>
      <rect class="st6" x="736.93" y="2032.13" width="3.9" height="10.59"/>
      <path class="st4" d="M746.63,2045.96h-15.49c-1.79,0-3.25-1.45-3.25-3.25h0c0-1.79,1.45-3.25,3.25-3.25h15.49c1.79,0,3.25,1.45,3.25,3.25h0c0,1.79-1.45,3.25-3.25,3.25Z"/>
      <path class="st6" d="M763.9,2075.42h-26.78c-3.79,0-7.17-2.71-7.65-6.47-.58-4.54,2.96-8.43,7.39-8.43h4.06c1.96,0,3.55-1.59,3.55-3.55v-.52c0-1.96-1.59-3.55-3.55-3.55h-11.09c-1.08,0-1.95-.87-1.95-1.95h0c0-1.08.87-1.95,1.95-1.95h11.09c4.12,0,7.45,3.34,7.45,7.45v.52c0,4.12-3.34,7.45-7.45,7.45h-3.92c-1.72,0-3.3,1.16-3.62,2.84-.44,2.27,1.29,4.26,3.48,4.26h27.04c1.08,0,1.95.87,1.95,1.95h0c0,1.08-.87,1.95-1.95,1.95Z"/>
      <g>
        <path class="st3" d="M765.85,2063.08c-6.69,0-12.13-5.44-12.13-12.13s5.44-12.13,12.13-12.13,12.13,5.44,12.13,12.13-5.44,12.13-12.13,12.13ZM765.85,2045.31c-3.11,0-5.64,2.53-5.64,5.64s2.53,5.64,5.64,5.64,5.64-2.53,5.64-5.64-2.53-5.64-5.64-5.64Z"/>
        <path class="st6" d="M785.22,2075.59h-3.9v-24.82c0-1.08.87-1.95,1.95-1.95h0c1.08,0,1.95.87,1.95,1.95v24.82Z"/>
        <path class="st5" d="M807.6,2075.48h-13.31c-1.79,0-3.25-1.45-3.25-3.25v-20.15c0-1.79,1.45-3.25,3.25-3.25h13.31c1.79,0,3.25,1.45,3.25,3.25h0c0,1.79-1.45,3.25-3.25,3.25h-10.06v13.65h10.06c1.79,0,3.25,1.45,3.25,3.25h0c0,1.79-1.45,3.25-3.25,3.25Z"/>
        <path class="st5" d="M802.9,2065.41h-8.61v-6.5h8.61c1.79,0,3.25,1.45,3.25,3.25h0c0,1.79-1.45,3.25-3.25,3.25Z"/>
        <path class="st1" d="M818.01,2064.11h-6.11c-1.08,0-1.95-.87-1.95-1.95h0c0-1.08.87-1.95,1.95-1.95h6.11v3.9Z"/>
        <path class="st6" d="M818.01,2075.59h0c-1.08,0-1.95-.87-1.95-1.95v-22.87c0-1.08.87-1.95,1.95-1.95h0c1.08,0,1.95.87,1.95,1.95v22.87c0,1.08-.87,1.95-1.95,1.95Z"/>
      </g>
      <path class="st9" d="M746.63,2036.44h-18.56v-13.48c0-1.79,1.45-3.25,3.25-3.25h0c1.79,0,3.25,1.45,3.25,3.25v6.98h12.07c1.79,0,3.25,1.45,3.25,3.25h0c0,1.79-1.45,3.25-3.25,3.25Z"/>
    </g>
    <g>
      <g>
        <g>
          <circle class="st1" cx="668.58" cy="2030.81" r="10.11" transform="translate(-1240.18 1067.57) rotate(-45)"/>
          <path class="st6" d="M668.58,2042.7c-6.55,0-11.88-5.33-11.88-11.88s5.33-11.88,11.88-11.88,11.88,5.33,11.88,11.88-5.33,11.88-11.88,11.88ZM668.58,2022.48c-4.6,0-8.34,3.74-8.34,8.34s3.74,8.34,8.34,8.34,8.34-3.74,8.34-8.34-3.74-8.34-8.34-8.34Z"/>
        </g>
        <g>
          <circle class="st8" cx="702.87" cy="2063.71" r="10.11"/>
          <path class="st6" d="M702.87,2075.59c-6.55,0-11.88-5.33-11.88-11.88s5.33-11.88,11.88-11.88,11.88,5.33,11.88,11.88-5.33,11.88-11.88,11.88ZM702.87,2055.37c-4.6,0-8.34,3.74-8.34,8.34s3.74,8.34,8.34,8.34,8.34-3.74,8.34-8.34-3.74-8.34-8.34-8.34Z"/>
        </g>
        <path class="st6" d="M712.98,2047.27h-26.46c-.98,0-1.77-.79-1.77-1.77s.79-1.77,1.77-1.77h26.46c.98,0,1.77.79,1.77,1.77s-.79,1.77-1.77,1.77Z"/>
        <path class="st6" d="M702.87,2047.27c-.98,0-1.77-.79-1.77-1.77v-5.55c0-.98.79-1.77,1.77-1.77s1.77.79,1.77,1.77v5.55c0,.98-.79,1.77-1.77,1.77Z"/>
        <polyline class="st7" points="686.52 2011.99 650.64 2011.99 668.58 1995.91 686.52 2011.99"/>
        <path class="st6" d="M686.52,2045.49"/>
        <path class="st6" d="M690.47,2033.5h-3.95c-.98,0-1.77-.79-1.77-1.77s.79-1.77,1.77-1.77h3.95c.98,0,1.77.79,1.77,1.77s-.79,1.77-1.77,1.77Z"/>
        <path class="st6" d="M723.17,2057.38h-3.95c-.98,0-1.77-.79-1.77-1.77s.79-1.77,1.77-1.77h3.95c.98,0,1.77.79,1.77,1.77s-.79,1.77-1.77,1.77Z"/>
        <path class="st6" d="M650.64,2075.59h-30.41c-.98,0-1.77-.79-1.77-1.77v-8.05c0-.98.79-1.77,1.77-1.77h3.84v-5.51c0-.98.79-1.77,1.77-1.77h3.42v-4.46c0-.98.79-1.77,1.77-1.77h4.38v-5.78c0-.98.79-1.77,1.77-1.77h4.52v-5.63c0-.98.79-1.77,1.77-1.77h7.15c.98,0,1.77.79,1.77,1.77s-.79,1.77-1.77,1.77h-5.38v5.63c0,.98-.79,1.77-1.77,1.77h-4.52v5.78c0,.98-.79,1.77-1.77,1.77h-4.38v4.46c0,.98-.79,1.77-1.77,1.77h-3.42v5.51c0,.98-.79,1.77-1.77,1.77h-3.84v4.5h28.63c.98,0,1.77.79,1.77,1.77s-.79,1.77-1.77,1.77Z"/>
        <path class="st6" d="M719.22,2075.59h-68.57c-.98,0-1.77-.79-1.77-1.77v-61.83c0-.98.79-1.77,1.77-1.77s1.77.79,1.77,1.77v60.06h65.02v-26.55c0-.98.79-1.77,1.77-1.77s1.77.79,1.77,1.77v28.33c0,.98-.79,1.77-1.77,1.77Z"/>
        <path class="st6" d="M686.52,2047.27c-.98,0-1.77-.79-1.77-1.77v-24.79c0-.98.79-1.77,1.77-1.77s1.77.79,1.77,1.77v24.79c0,.98-.79,1.77-1.77,1.77Z"/>
        <g>
          <polyline class="st0" points="668.58 1991.49 668.58 1980.9 680.65 1980.9 668.58 1991.49"/>
          <path class="st6" d="M668.58,1993.27c-.25,0-.5-.05-.73-.16-.63-.29-1.04-.92-1.04-1.62v-10.59c0-.98.79-1.77,1.77-1.77h12.07c.74,0,1.4.46,1.66,1.15.26.69.06,1.47-.49,1.96l-12.07,10.59c-.33.29-.75.44-1.17.44ZM670.36,1982.68v4.9l5.58-4.9h-5.58Z"/>
        </g>
        <path class="st6" d="M668.58,1997.68c-.98,0-1.77-.79-1.77-1.77v-5.28c0-.98.79-1.77,1.77-1.77s1.77.79,1.77,1.77v5.28c0,.98-.79,1.77-1.77,1.77Z"/>
      </g>
      <path class="st6" d="M686.52,2013.76h-35.88c-.74,0-1.39-.45-1.66-1.14-.26-.69-.07-1.46.47-1.96l17.94-16.08c.67-.6,1.69-.6,2.37,0l17.94,16.08c.55.49.74,1.27.47,1.96-.26.69-.92,1.14-1.66,1.14ZM655.28,2010.21h26.6l-13.3-11.92-13.3,11.92Z"/>
    </g>
    <g>
      <path class="st6" d="M824.67,2050.53c.03.11.1.16.21.16.07,0,.13-.03.16-.08.04-.06.07-.12.1-.21l.2-.65c.08-.24.17-.41.29-.49.12-.09.27-.13.44-.13.14,0,.25.03.35.09.1.06.17.14.23.24.06.1.1.21.13.34s.04.27.04.41c0,.06,0,.14-.02.22-.01.08-.03.17-.04.26-.01.09-.03.17-.06.25-.03.08-.05.15-.08.22l-.48-.1c.05-.14.09-.29.12-.45.03-.16.05-.31.05-.45,0-.15-.02-.27-.06-.33s-.1-.1-.18-.1-.13.02-.17.06c-.04.04-.08.13-.12.25-.03.11-.07.21-.1.32-.04.11-.08.23-.12.37-.06.19-.15.33-.25.42-.1.09-.23.14-.41.14-.15,0-.28-.03-.38-.1-.1-.07-.18-.16-.25-.27-.06-.11-.11-.23-.13-.36-.03-.13-.04-.27-.04-.4,0-.05,0-.09,0-.13,0-.04,0-.08.01-.12.01-.17.04-.31.08-.44.04-.13.09-.26.16-.37l.47.13c-.07.16-.12.32-.16.46-.04.15-.06.31-.06.47,0,.14.02.26.05.37Z"/>
      <path class="st6" d="M824.65,2052.95c.02.06.04.12.06.18l-.43.12c-.06-.1-.11-.2-.13-.3-.03-.1-.04-.2-.04-.3,0-.24.06-.4.17-.49.11-.09.28-.13.5-.13h1.47v-.32h.49v.93h-1.95c-.05,0-.1.01-.12.03-.03.02-.04.06-.04.13,0,.04,0,.1.02.16ZM827.34,2051.99h.66v.65h-.66v-.65Z"/>
      <path class="st6" d="M824.17,2055.33h1.75c.13,0,.23-.03.3-.09.06-.06.1-.15.1-.27,0-.16-.04-.3-.12-.43-.08-.12-.16-.23-.25-.31h-1.78v-.6h2.57v.54l-.23.05c.09.12.17.26.23.4.06.14.09.3.09.46,0,.29-.07.51-.2.64-.13.14-.33.2-.58.2h-1.87v-.6Z"/>
      <path class="st6" d="M824.36,2058.74c-.08-.1-.13-.22-.18-.37-.04-.15-.06-.32-.06-.52,0-.42.11-.75.34-.97.23-.23.56-.34,1-.34.27,0,.5.04.67.11.18.08.31.17.41.3.1.13.18.27.22.43s.06.32.06.49-.02.32-.07.48c-.05.16-.1.29-.16.38l-.46-.16c.05-.11.09-.23.12-.36.03-.13.05-.24.05-.35,0-.27-.08-.46-.23-.56-.15-.11-.36-.16-.61-.16-.29,0-.5.06-.63.18-.13.12-.2.3-.2.54,0,.12.01.24.04.36.02.12.07.24.14.38l-.44.15Z"/>
      <path class="st6" d="M824.68,2060.94c.03.15.08.3.14.44l-.45.15c-.06-.13-.12-.28-.18-.46-.05-.18-.08-.35-.08-.51,0-.45.1-.79.3-1.02.2-.23.55-.34,1.05-.34.42,0,.75.1.99.31.24.21.36.53.36.96,0,.39-.09.68-.26.88-.18.2-.39.29-.64.28-.28-.02-.47-.11-.56-.27-.09-.16-.14-.37-.14-.64v-.9c-.22,0-.37.05-.46.16-.09.11-.13.3-.13.58,0,.1.02.23.05.38ZM826.14,2060.01c-.11-.12-.25-.18-.43-.19v.92c0,.11.02.18.07.22.05.04.11.06.2.06.1,0,.18-.05.24-.15.06-.1.09-.23.09-.4,0-.19-.05-.35-.16-.47Z"/>
      <path class="st6" d="M824.17,2066.09v-2.41h.48l1.5,1.28c.17.15.33.26.47.33s.3.09.49.06c.15-.03.25-.1.3-.21.05-.11.08-.22.08-.34,0-.15-.02-.31-.07-.48-.05-.17-.1-.33-.15-.47l.47-.14c.06.15.12.32.18.51.06.19.09.39.09.61,0,.24-.04.46-.13.65-.08.19-.22.32-.41.41-.16.07-.31.1-.46.09-.15,0-.29-.03-.43-.08-.14-.05-.27-.12-.4-.21-.13-.09-.24-.17-.35-.26l-1.15-.98v1.63h-.51Z"/>
      <path class="st6" d="M825.21,2069.2c-.24-.04-.44-.11-.6-.21s-.28-.23-.37-.4c-.08-.17-.12-.38-.12-.64s.04-.48.12-.65c.08-.17.21-.3.37-.39.16-.1.36-.16.6-.2.24-.04.52-.05.83-.05.29,0,.56.02.8.05.24.03.45.09.62.19.17.09.3.22.39.39.09.17.14.39.14.67s-.05.49-.14.66c-.09.17-.22.3-.39.4-.17.09-.38.16-.62.19-.24.03-.51.05-.8.05-.32,0-.59-.02-.84-.06ZM826.7,2068.62c.18-.02.33-.05.44-.1.12-.05.2-.13.25-.21.05-.09.08-.2.08-.34s-.03-.25-.08-.34c-.05-.09-.14-.16-.25-.21-.11-.05-.26-.08-.44-.1-.18-.02-.4-.03-.65-.03s-.48,0-.65.03c-.18.02-.32.05-.43.1-.11.05-.19.12-.23.21-.05.09-.07.2-.07.34s.02.25.07.34c.05.09.13.16.23.21.11.05.26.09.43.1.18.02.39.03.65.03s.47,0,.65-.03Z"/>
      <path class="st6" d="M824.17,2072.24v-2.41h.48l1.5,1.28c.17.15.33.26.47.33s.3.09.49.06c.15-.03.25-.1.3-.21.05-.11.08-.22.08-.34,0-.15-.02-.31-.07-.48-.05-.17-.1-.33-.15-.47l.47-.14c.06.15.12.32.18.51.06.19.09.39.09.61,0,.24-.04.46-.13.65-.08.19-.22.32-.41.41-.16.07-.31.1-.46.09-.15,0-.29-.03-.43-.08-.14-.05-.27-.12-.4-.21-.13-.09-.24-.17-.35-.26l-1.15-.98v1.63h-.51Z"/>
      <path class="st6" d="M824.95,2075.51v-.4h-.79v-.62h.79v-1.77h.49l2.5,1.75v.64h-2.5v.4h-.5ZM825.45,2074.49h1.6l-1.6-1.12v1.12Z"/>
    </g>
  </g>
  <polygon class="st2" points="882.65 2077.5 861.41 2077.5 861.41 389.2 445.06 52.8 48.93 387.19 48.93 2077.5 27.7 2077.5 27.7 377.33 444.76 25.26 882.65 379.05 882.65 2077.5"/>
</svg>