<?xml version="1.0" encoding="UTF-8"?>
<svg id="_레이어_1" xmlns="http://www.w3.org/2000/svg" version="1.1" viewBox="0 0 708.66 1352.39">
  <!-- Generator: Adobe Illustrator 29.2.1, SVG Export Plug-In . SVG Version: 2.1.0 Build 116)  -->
  <defs>
    <style>
      .st0 {
        fill: #f19ca6;
      }

      .st1 {
        stroke-width: 2.6px;
      }

      .st1, .st2 {
        fill: #d7000f;
        stroke: #d7000f;
        stroke-miterlimit: 10;
      }

      .st3 {
        fill: #9fcf86;
      }

      .st4 {
        fill: #fcc800;
      }

      .st5 {
        fill: #82c1ea;
      }

      .st6 {
        fill: #7ac281;
      }

      .st7 {
        fill: #eb5c28;
      }

      .st8 {
        fill: #551f11;
      }

      .st9 {
        fill: #9ac838;
      }

      .st10 {
        fill: #fdd23e;
      }

      .st2 {
        stroke-width: 1.84px;
      }

      .st11 {
        fill: #fabe00;
      }
    </style>
  </defs>
  <g>
    <g>
      <path class="st8" d="M606.22,1256.68c.07.14.13.29.14.44.02.15,0,.3-.04.45-.05.16-.13.3-.26.44s-.26.24-.4.31-.3.1-.44.1c-.15,0-.3-.03-.44-.09-.15-.07-.29-.15-.42-.27-.13-.12-.23-.24-.32-.38-.08-.14-.13-.29-.15-.44-.02-.15,0-.3.04-.46.05-.15.13-.3.26-.44.12-.13.26-.24.4-.3s.3-.1.44-.1.3.03.45.09c.15.07.29.15.42.27s.24.24.32.38h0ZM605.3,1256.52c-.09-.04-.18-.07-.27-.07s-.18,0-.27.04c-.09.03-.16.09-.23.16-.07.08-.12.16-.13.25-.02.09-.02.18,0,.27s.06.18.11.26.12.16.21.23c.08.07.17.13.26.18.09.04.18.07.27.07s.18,0,.26-.04.16-.09.23-.16.12-.16.13-.25c.02-.09.02-.18,0-.27s-.05-.18-.1-.26-.12-.16-.21-.24-.16-.13-.26-.17h0ZM607.25,1255.32l-.44.49,1.48,1.31-.35.41-2.82-2.49.35-.41,1,.89.44-.49.34.3h0Z"/>
      <path class="st8" d="M609.29,1253.69c.07.15.09.3.09.45s-.03.3-.1.44-.17.27-.3.4c-.14.12-.29.21-.44.26s-.3.07-.45.04c-.15-.01-.29-.07-.43-.15s-.27-.19-.38-.32-.21-.27-.27-.41c-.07-.15-.09-.3-.09-.45s.04-.3.1-.44.17-.28.3-.4.28-.21.44-.25.3-.06.46-.04.3.07.44.15c.14.07.27.18.38.32.12.13.21.27.27.43h0v-.03ZM608.39,1253.41c-.09-.05-.18-.09-.26-.11s-.18-.02-.27,0-.18.07-.25.13c-.08.07-.13.15-.16.23-.03.09-.04.18-.04.26,0,.09.04.18.07.27.04.09.1.18.18.26s.15.15.23.21c.08.05.17.09.26.11s.18.02.26,0,.17-.07.25-.13c.07-.07.13-.15.16-.23s.04-.18.04-.26c0-.09-.04-.18-.07-.27-.04-.09-.1-.18-.18-.26s-.15-.15-.24-.21h.01ZM611.41,1254.27l-.41.35-2.49-2.82.41-.35,2.49,2.82Z"/>
      <path class="st8" d="M612.37,1249.46l-1.71,1.16.24.35s.05.07.09.07c.03,0,.07,0,.12-.04l.81-.55c.15-.1.28-.21.39-.3s.21-.21.31-.33l.32.27c-.09.12-.19.24-.32.35-.13.12-.27.24-.46.36l-.93.63c-.16.11-.3.16-.41.16s-.21-.08-.32-.23l-.53-.78,2.16-1.47.24.35h0ZM613.78,1250.52l-3,2.05-.24-.35,3-2.05.24.35ZM612.33,1253.86c-.08,0-.16-.06-.23-.16l-.41-.61,1.82-1.24-.15-.21-1.82,1.24-.23-.34,2.02-1.38c.1-.07.18-.09.26-.06s.13.09.18.17l.28.52s.03.07.03.11c0,.03-.03.07-.07.09l-1.62,1.11.15.21,1.31-.89c.07-.05.16-.11.24-.18.08-.07.16-.14.24-.23l.3.26c-.1.13-.21.23-.3.3s-.18.15-.28.21l-1.42.97c-.1.07-.19.1-.27.1h0s-.01.01-.01.01Z"/>
      <path class="st8" d="M616.09,1249.17c.02.16.01.32-.02.46-.04.15-.1.28-.21.41s-.23.23-.4.32-.33.13-.49.14-.31-.01-.44-.07c-.14-.05-.27-.13-.38-.24s-.21-.24-.3-.4c-.07-.16-.13-.31-.16-.47s-.01-.32.02-.46c.04-.15.1-.28.21-.41s.23-.23.4-.32.32-.13.48-.14.31.01.45.07c.14.05.27.13.38.24s.21.24.3.4c.08.16.13.32.16.47h0ZM615.29,1248.68c-.07-.07-.15-.13-.23-.17s-.17-.07-.26-.07-.18.02-.27.07c-.1.05-.17.11-.21.19-.05.07-.08.16-.1.24s0,.18,0,.28c.02.1.06.2.1.29.05.1.11.18.18.26s.14.13.22.17c.08.04.16.07.26.07.09,0,.18-.02.27-.07s.16-.1.21-.18c.05-.07.09-.16.1-.24s.01-.18,0-.28c-.02-.1-.05-.2-.1-.3s-.1-.18-.18-.25h0ZM618,1250.25l-.48.24-1.72-3.34.48-.24,1.72,3.34Z"/>
      <path class="st8" d="M620.57,1246.05l-.27.09c.06.05.1.11.16.18.04.07.08.14.1.22.04.13.05.25.04.37-.01.12-.05.23-.1.33-.06.1-.13.18-.22.26s-.19.13-.31.16c-.12.04-.24.05-.35.05s-.23-.04-.33-.08c-.1-.05-.19-.12-.27-.21s-.13-.2-.18-.32c-.02-.08-.04-.16-.04-.24,0-.07,0-.16.02-.23l-.26.08-.13-.4.69-.22c.01-.05.01-.1,0-.16,0-.05-.02-.1-.04-.15l-.04-.07s-.04-.05-.05-.07l.41-.28s.05.07.07.12c.02.04.04.07.05.12.02.07.03.13.04.18v.16l.86-.27.13.4h.01ZM619.9,1246.41c-.1-.05-.21-.07-.32-.02s-.21.1-.25.21c-.05.1-.05.21-.01.34.04.13.12.23.21.28s.21.06.33.02c.12-.04.21-.1.25-.21.05-.1.05-.21,0-.35-.04-.13-.11-.21-.21-.27h0ZM622.69,1248.39c-.02.13-.07.26-.13.37-.07.12-.16.21-.28.3s-.24.15-.38.2c-.15.05-.29.07-.44.07s-.28-.03-.4-.07-.23-.13-.32-.22-.16-.21-.21-.35c-.04-.14-.06-.28-.04-.41s.07-.26.13-.37.17-.21.29-.3c.12-.09.24-.16.4-.2.15-.05.29-.07.44-.07s.27.03.4.07c.12.05.23.13.32.22s.16.21.21.35c.04.14.06.27.04.41h-.02ZM622.57,1247.06l-.47.15-.3-.95-.39.13.24.75-.47.15-.65-2.02.47-.15.27.86.39-.13-.27-.86.47-.15.71,2.21h0ZM621.86,1247.82c-.13-.07-.29-.07-.44-.02-.16.05-.29.15-.35.27-.07.13-.09.27-.04.43s.14.27.27.32c.13.07.29.07.45,0,.16-.05.28-.14.35-.27.07-.13.09-.27.04-.43s-.14-.26-.27-.32h0Z"/>
      <path class="st8" d="M625.77,1244l.24,1.32c-.1.09-.24.18-.42.27-.18.09-.34.15-.51.18h-.07s.07.36.07.36l1.56-.29.07.41-3.57.66-.07-.41,1.48-.27-.07-.35-.47.09c-.17.03-.31.02-.42-.02-.12-.04-.18-.15-.21-.32l-.21-1.16.52-.1.07.4,1.55-.29-.07-.4.52-.1h0ZM626.53,1248.1l-.49.09-.15-.82c0-.06-.03-.1-.05-.12-.02-.02-.07-.03-.12-.02l-2.05.38-.07-.43,2.39-.44c.13-.02.21,0,.28.05.07.05.1.13.12.24l.15,1.06h0ZM625.19,1245.3c.08-.04.16-.07.24-.13l-.05-.27-1.55.29.05.27s.02.07.04.09c.02.01.06.01.1,0l.92-.17c.09-.01.17-.04.25-.07h0Z"/>
      <path class="st8" d="M629.42,1244.52l-2.43.14-.02-.43.87-.05s.04-.1.04-.15,0-.11,0-.18c0-.02,0-.04-.02-.07,0-.04-.02-.07-.03-.09l.51-.18c.02.05.04.09.05.15.01.05.02.1.02.14,0,.07,0,.13-.01.19s-.03.12-.06.18l1.04-.07.02.43h.02ZM629.22,1245.8c-.05.1-.12.19-.21.27-.09.07-.2.13-.32.18s-.25.07-.39.07-.27,0-.4-.03-.24-.07-.33-.13-.18-.15-.23-.24c-.06-.1-.09-.21-.1-.35,0-.13,0-.24.06-.35.04-.1.11-.19.2-.27s.19-.13.32-.18c.12-.04.26-.07.4-.07.3-.02.54.04.75.18.21.13.31.32.32.58,0,.13-.01.25-.07.35h0ZM627.92,1247.75c-.07-.09-.12-.19-.12-.32l-.05-.83.54-.03.04.74s.01.07.03.1c.01.02.05.03.09.02l1.12-.07c.19,0,.35-.03.49-.06.15-.03.3-.07.48-.13l.13.4c-.21.07-.38.13-.52.16-.15.03-.32.05-.49.07l-1.34.07c-.19,0-.32-.02-.4-.11h0s0,0,0,0ZM628.59,1245.19c-.1-.06-.22-.07-.35-.07-.13,0-.25.04-.34.11s-.13.17-.13.3c0,.14.07.24.16.3.1.05.21.07.35.07s.26-.04.35-.11.13-.17.13-.31c0-.13-.07-.23-.16-.29h0ZM631.04,1245.28l-.65.04.07,1.25-.54.03-.16-2.88.54-.03.07,1.2.65-.04.02.44h0Z"/>
      <path class="st8" d="M634,1247.79l.12-1.14-1.52-.16.04-.43,3.62.38-.04.43-1.54-.16-.12,1.14-.55-.06h0ZM635.82,1245.66c-.2.07-.4.11-.61.13s-.44.02-.68,0l-.74-.07c-.21-.02-.35-.08-.46-.18s-.14-.23-.12-.41l.13-1.27,2.64.28-.16,1.52h0ZM633.76,1245.08c0,.07,0,.12.02.15s.07.04.14.05l.63.07c.13.01.26.01.38,0s.24-.03.38-.07l.08-.78-1.57-.16-.07.74h0Z"/>
      <path class="st8" d="M638.8,1246.68c-.07.09-.17.15-.27.2-.1.04-.23.07-.35.07s-.26,0-.4-.04-.26-.08-.38-.14c-.11-.07-.21-.13-.28-.23-.07-.09-.13-.19-.16-.3s-.03-.23,0-.36c.03-.13.08-.23.16-.32s.16-.16.27-.2c.1-.05.22-.07.35-.08.13,0,.27,0,.41.04.29.07.51.19.66.38s.21.4.15.65c-.03.13-.08.24-.16.32h0ZM637,1248.19c-.05-.1-.05-.21-.02-.34l.19-.81.52.13-.17.72s0,.07,0,.1c0,.02.04.04.08.05l1.09.26c.18.04.35.07.49.09s.32.01.49,0v.42c-.21.01-.39.02-.54,0s-.32-.04-.49-.08l-1.31-.31c-.18-.04-.3-.12-.35-.21h0ZM639.35,1245.51l-2.36-.55.1-.41.85.2s.07-.07.09-.13.04-.1.04-.18v-.18l.55-.04c0,.05,0,.1,0,.16s0,.1-.01.14c-.01.07-.04.13-.07.18-.03.06-.07.1-.1.16l1.02.24-.1.41h0,0ZM638.37,1245.92c-.08-.08-.19-.14-.32-.17s-.25-.03-.36,0c-.11.04-.18.12-.21.25-.04.13,0,.24.07.33.08.08.19.13.32.17.13.04.26.03.36,0,.1-.04.18-.12.21-.26.03-.13,0-.24-.07-.32h0ZM640.69,1246.7l-.63-.15-.29,1.22-.52-.12.66-2.81.52.12-.27,1.17.63.15-.1.42h0Z"/>
      <path class="st8" d="M642.81,1245.66c0,.11,0,.21,0,.29-.01.08-.04.17-.07.27-.02.07-.05.12-.08.18s-.07.12-.1.17c.13.06.23.12.29.2.07.07.11.16.15.26.04.13.07.25.11.38.04.13.07.26.1.38l-.46.15c-.02-.07-.04-.15-.06-.21-.01-.07-.04-.13-.05-.19s-.03-.12-.04-.16-.03-.1-.04-.15c-.02-.07-.06-.14-.09-.2s-.1-.11-.18-.16c-.16.14-.35.26-.57.36-.21.1-.44.18-.69.23l-.13-.48c.36-.07.65-.2.87-.37.21-.16.37-.35.45-.58.02-.06.04-.12.05-.18,0-.07,0-.13,0-.21l.52.02h0ZM644.66,1246.43l-.34.89.61.23-.15.4-.61-.23-.18.46c-.07.16-.14.29-.24.38s-.21.16-.34.2c.04.1.05.21.05.32s-.02.21-.07.33c-.05.14-.13.25-.23.34-.1.09-.21.16-.34.21-.13.04-.27.07-.41.07-.15,0-.29-.04-.43-.09-.15-.05-.27-.13-.38-.22-.11-.09-.2-.2-.27-.32-.07-.12-.1-.24-.12-.38-.01-.13,0-.27.06-.41.05-.14.13-.26.23-.35s.21-.16.34-.21c.13-.04.27-.07.41-.07s.29.03.44.09c.1.04.19.08.27.14.08.06.16.12.21.19.07-.04.13-.08.17-.15s.09-.15.13-.26l.66-1.74.5.19h0ZM642.9,1248.76c-.07-.13-.17-.23-.33-.3s-.32-.07-.45,0c-.14.06-.24.17-.3.33-.06.16-.06.3,0,.44s.18.23.34.3c.16.06.3.07.44,0,.13-.06.23-.17.29-.32.06-.16.06-.3,0-.44h0Z"/>
      <path class="st8" d="M646.99,1247.46c0,.11-.02.21-.04.29-.02.07-.06.16-.1.26-.03.06-.07.12-.1.17s-.07.1-.13.16c.12.07.21.15.27.23.05.08.09.18.11.27.02.13.04.26.07.39.02.13.04.26.05.39l-.47.09c0-.08-.02-.16-.03-.22s-.02-.13-.03-.19c0-.07-.01-.12-.02-.17s-.01-.1-.02-.15c-.01-.07-.04-.15-.07-.21s-.07-.12-.16-.18c-.18.12-.38.21-.61.29s-.47.12-.71.15l-.07-.49c.37-.03.67-.12.91-.25s.41-.31.52-.52c.03-.05.05-.12.07-.18.02-.07.03-.13.04-.2l.52.09h0ZM648.73,1248.47l-.45.84.58.31-.21.38-.58-.31-.23.44c-.08.16-.18.27-.28.34s-.23.13-.37.15c.02.1.02.21,0,.32s-.05.21-.1.32c-.07.13-.16.24-.27.32s-.23.13-.36.16c-.13.03-.27.04-.41,0-.14-.02-.28-.07-.41-.14s-.25-.16-.35-.27c-.1-.1-.18-.22-.22-.35-.05-.12-.07-.25-.07-.38s.04-.27.11-.4c.07-.13.16-.24.27-.32.11-.08.23-.13.36-.16.13-.03.27-.04.41,0,.15.02.29.07.42.14.09.05.18.1.24.18s.14.13.19.21c.07-.02.13-.07.19-.12.05-.06.1-.13.16-.24l.88-1.65.47.25h0s.01-.01.01-.01ZM646.67,1250.55c-.04-.14-.14-.25-.29-.33-.16-.08-.3-.1-.44-.06s-.26.13-.34.29c-.08.15-.1.3-.05.44.05.14.15.25.3.33.15.08.3.1.44.06.14-.04.25-.13.33-.29.08-.15.1-.3.05-.44h0Z"/>
      <path class="st8" d="M648.97,1253.41c-.02-.08,0-.17.08-.27l.45-.58,1.75,1.34.16-.21-1.75-1.34.25-.33,1.93,1.48c.1.07.14.15.13.22,0,.07-.04.15-.1.21l-.41.43s-.07.05-.1.07c-.03,0-.07,0-.11-.04l-1.57-1.2-.16.21,1.26.97c.07.06.16.12.24.18s.18.11.3.16l-.15.35c-.16-.06-.28-.12-.38-.18-.1-.07-.19-.13-.29-.2l-1.37-1.04c-.1-.07-.16-.15-.18-.23h.01ZM651.79,1250.48l-.47.62s-.04.07-.05.1c0,.04.01.07.06.09l.65.49c.13.1.28.21.46.32s.35.19.55.26l-.17.38c-.2-.07-.37-.15-.53-.24-.16-.09-.31-.2-.46-.31l-.19.25,1.24.95-.26.33-2.88-2.21.26-.33,1.21.93.19-.25-.45-.34c-.14-.1-.21-.21-.23-.32-.01-.1.02-.22.12-.34l.54-.71.43.33h-.01Z"/>
      <path class="st8" d="M654.61,1255.52c-.15.07-.29.11-.44.12-.15.01-.3,0-.45-.07s-.29-.15-.42-.27c-.13-.13-.23-.27-.29-.41-.06-.15-.08-.3-.07-.44,0-.15.04-.3.11-.44s.17-.28.29-.41c.12-.12.26-.22.4-.3.15-.07.29-.12.44-.13s.3,0,.45.07c.15.05.29.15.42.27s.22.27.28.41c.06.15.08.3.07.45s-.05.3-.12.44-.16.28-.29.41c-.13.13-.26.22-.4.3h.01ZM654.82,1254.6c.05-.09.07-.18.09-.27s0-.18-.02-.27-.07-.17-.15-.24c-.07-.07-.16-.13-.24-.15s-.18-.03-.27-.01-.18.05-.27.1-.17.12-.24.19c-.07.07-.14.16-.19.24-.05.09-.07.18-.09.27s0,.18.02.26.07.16.16.24c.07.07.16.12.24.15.09.02.18.04.27.02s.18-.04.27-.09.17-.11.24-.19c.07-.07.13-.16.18-.24h0ZM654.18,1257.67l-.38-.38,2.64-2.68.38.38-2.64,2.68Z"/>
      <path class="st8" d="M658.43,1257.17l-1.93,1.52c-.15-.05-.28-.1-.41-.18s-.24-.17-.34-.3l-.26-.33c-.1-.13-.15-.25-.15-.36,0-.12.07-.22.2-.32l1.79-1.42.32.4-.72.57.48.61.72-.57.31.38h-.01ZM656.22,1258.05c.07.05.13.07.19.08l.63-.5-.48-.61-.65.52s-.05.05-.06.07c0,.02,0,.05.04.09l.17.21s.07.08.15.13h0ZM655.93,1259.66l2.88-2.27.32.4-1.06.83.3.38,1.06-.83.32.4-2.95,2.33-.32-.4,1.53-1.21-.3-.38-1.45,1.15-.32-.4h0Z"/>
      <path class="st8" d="M660.11,1263.54l-.82-1.36-.23.14.43.72c.06.09.07.18.04.25s-.1.14-.22.21l-.84.41c-.05.02-.1.03-.13,0-.04-.01-.07-.05-.1-.1l-.98-1.62c-.07-.13-.12-.26-.13-.39s.07-.24.22-.33l.88-.52.55.92.23-.14-.78-1.28.36-.21,1.88,3.11-.36.21h0ZM658.45,1263.37l.53-.32-.86-1.42-.41.24c-.05.03-.07.06-.08.09s0,.07.03.1l.78,1.3h0ZM660.71,1262.22c-.13,0-.25-.01-.37-.07s-.23-.12-.33-.21-.19-.21-.27-.34c-.08-.13-.14-.27-.18-.4s-.05-.27-.04-.4c0-.13.05-.24.12-.35s.16-.21.3-.28c.13-.07.26-.12.38-.13.13,0,.25.01.37.07s.23.12.33.22c.1.1.2.21.27.34.08.13.13.27.18.4.04.13.05.27.04.4-.01.13-.05.24-.12.35-.07.11-.16.21-.3.28-.13.07-.26.12-.38.13h0ZM661.03,1261.31c.02-.13-.01-.28-.1-.43s-.2-.24-.33-.3c-.13-.05-.26-.04-.38.04-.13.07-.21.19-.21.33s.02.29.11.43.2.24.32.29c.13.05.26.04.38-.04.13-.07.2-.18.21-.32h0Z"/>
    </g>
    <g>
      <rect class="st8" x="622.1" y="1261.4" width="1.88" height="5.12"/>
      <path class="st7" d="M626.79,1268.08h-7.49c-.86,0-1.57-.7-1.57-1.57h0c0-.86.7-1.57,1.57-1.57h7.49c.86,0,1.57.7,1.57,1.57h0c0,.86-.7,1.57-1.57,1.57Z"/>
      <path class="st8" d="M635.14,1282.33h-12.95c-1.83,0-3.47-1.31-3.7-3.13-.28-2.19,1.43-4.08,3.57-4.08h1.96c.95,0,1.71-.77,1.71-1.71v-.25c0-.95-.77-1.71-1.71-1.71h-5.36c-.52,0-.95-.42-.95-.95h0c0-.52.42-.95.95-.95h5.36c1.99,0,3.6,1.62,3.6,3.6v.25c0,1.99-1.62,3.6-3.6,3.6h-1.9c-.83,0-1.59.56-1.75,1.37-.21,1.1.62,2.06,1.68,2.06h13.07c.52,0,.95.42.95.95h0c0,.52-.42.95-.95.95h0Z"/>
      <g>
        <path class="st6" d="M636.08,1276.36c-3.23,0-5.86-2.63-5.86-5.86s2.63-5.86,5.86-5.86,5.86,2.63,5.86,5.86-2.63,5.86-5.86,5.86ZM636.08,1267.77c-1.51,0-2.72,1.23-2.72,2.72s1.23,2.72,2.72,2.72,2.72-1.23,2.72-2.72-1.23-2.72-2.72-2.72h0Z"/>
        <path class="st8" d="M645.44,1282.41h-1.88v-12c0-.52.42-.95.95-.95h0c.52,0,.95.42.95.95v12h0Z"/>
        <path class="st9" d="M656.27,1282.35h-6.44c-.86,0-1.57-.7-1.57-1.57v-9.75c0-.86.7-1.57,1.57-1.57h6.44c.86,0,1.57.7,1.57,1.57h0c0,.86-.7,1.57-1.57,1.57h-4.87v6.6h4.87c.86,0,1.57.7,1.57,1.57h0c0,.86-.7,1.57-1.57,1.57Z"/>
        <path class="st9" d="M653.99,1277.49h-4.16v-3.15h4.16c.86,0,1.57.7,1.57,1.57h0c0,.86-.7,1.57-1.57,1.57Z"/>
        <path class="st5" d="M661.29,1276.86h-2.95c-.52,0-.95-.42-.95-.95h0c0-.52.42-.95.95-.95h2.95v1.88h0Z"/>
        <path class="st8" d="M661.29,1282.41h0c-.52,0-.95-.42-.95-.95v-11.06c0-.52.42-.95.95-.95h0c.52,0,.95.42.95.95v11.06c0,.52-.42.95-.95.95Z"/>
      </g>
      <path class="st11" d="M626.79,1263.48h-8.97v-6.52c0-.86.7-1.57,1.57-1.57h0c.86,0,1.57.7,1.57,1.57v3.37h5.83c.86,0,1.57.7,1.57,1.57h0c0,.86-.7,1.57-1.57,1.57h0Z"/>
    </g>
    <g>
      <g>
        <g>
          <circle class="st5" cx="589.05" cy="1260.76" r="4.89"/>
          <path class="st8" d="M589.06,1266.51c-3.17,0-5.74-2.58-5.74-5.74s2.58-5.74,5.74-5.74,5.74,2.58,5.74,5.74-2.58,5.74-5.74,5.74ZM589.06,1256.74c-2.22,0-4.03,1.81-4.03,4.03s1.81,4.03,4.03,4.03,4.03-1.81,4.03-4.03-1.81-4.03-4.03-4.03Z"/>
        </g>
        <g>
          <circle class="st3" cx="605.63" cy="1276.67" r="4.89"/>
          <path class="st8" d="M605.63,1282.41c-3.17,0-5.74-2.58-5.74-5.74s2.58-5.74,5.74-5.74,5.74,2.58,5.74,5.74-2.58,5.74-5.74,5.74ZM605.63,1272.64c-2.22,0-4.03,1.81-4.03,4.03s1.81,4.03,4.03,4.03,4.03-1.81,4.03-4.03-1.81-4.03-4.03-4.03Z"/>
        </g>
        <path class="st8" d="M610.52,1268.72h-12.79c-.47,0-.86-.38-.86-.86s.38-.86.86-.86h12.79c.47,0,.86.38.86.86s-.38.86-.86.86Z"/>
        <path class="st8" d="M605.63,1268.72c-.47,0-.86-.38-.86-.86v-2.68c0-.47.38-.86.86-.86s.86.38.86.86v2.68c0,.47-.38.86-.86.86Z"/>
        <polyline class="st10" points="597.72 1251.66 580.38 1251.66 589.06 1243.89 597.72 1251.66"/>
        <path class="st8" d="M597.72,1267.85"/>
        <path class="st8" d="M599.63,1262.06h-1.91c-.47,0-.86-.38-.86-.86s.38-.86.86-.86h1.91c.47,0,.86.38.86.86s-.38.86-.86.86Z"/>
        <path class="st8" d="M615.45,1273.61h-1.91c-.47,0-.86-.38-.86-.86s.38-.86.86-.86h1.91c.47,0,.86.38.86.86s-.38.86-.86.86Z"/>
        <path class="st8" d="M580.38,1282.41h-14.7c-.47,0-.86-.38-.86-.86v-3.89c0-.47.38-.86.86-.86h1.85v-2.67c0-.47.38-.86.86-.86h1.65v-2.16c0-.47.38-.86.86-.86h2.12v-2.8c0-.47.38-.86.86-.86h2.19v-2.72c0-.47.38-.86.86-.86h3.46c.47,0,.86.38.86.86s-.38.86-.86.86h-2.6v2.72c0,.47-.38.86-.86.86h-2.19v2.8c0,.47-.38.86-.86.86h-2.12v2.16c0,.47-.38.86-.86.86h-1.65v2.67c0,.47-.38.86-.86.86h-1.85v2.18h13.84c.47,0,.86.38.86.86s-.38.86-.86.86h0Z"/>
        <path class="st8" d="M613.54,1282.41h-33.16c-.47,0-.86-.38-.86-.86v-29.89c0-.47.38-.86.86-.86s.86.38.86.86v29.04h31.44v-12.84c0-.47.38-.86.86-.86s.86.38.86.86v13.69c0,.47-.38.86-.86.86h0Z"/>
        <path class="st8" d="M597.72,1268.72c-.47,0-.86-.38-.86-.86v-11.98c0-.47.38-.86.86-.86s.86.38.86.86v11.98c0,.47-.38.86-.86.86Z"/>
        <g>
          <polyline class="st0" points="589.06 1241.75 589.06 1236.63 594.89 1236.63 589.06 1241.75"/>
          <path class="st8" d="M589.06,1242.61c-.12,0-.24-.02-.35-.07-.3-.14-.5-.44-.5-.78v-5.12c0-.47.38-.86.86-.86h5.83c.35,0,.68.22.8.55.13.33.03.71-.24.95l-5.83,5.12c-.16.14-.36.21-.57.21h0ZM589.91,1237.49v2.37l2.69-2.37h-2.69Z"/>
        </g>
        <path class="st8" d="M589.06,1244.74c-.47,0-.86-.38-.86-.86v-2.55c0-.47.38-.86.86-.86s.86.38.86.86v2.55c0,.47-.38.86-.86.86Z"/>
      </g>
      <path class="st8" d="M597.72,1252.52h-17.35c-.35,0-.67-.21-.8-.55-.13-.33-.04-.71.23-.95l8.67-7.77c.32-.29.82-.29,1.14,0l8.67,7.77c.27.24.35.61.23.95-.13.33-.44.55-.8.55h0ZM582.62,1250.8h12.86l-6.43-5.77-6.43,5.77h0Z"/>
    </g>
    <g>
      <path class="st8" d="M664.52,1270.3c.01.05.05.07.1.07.04,0,.07-.01.07-.04.02-.03.04-.06.05-.1l.1-.32c.04-.12.08-.2.14-.24.06-.04.13-.07.21-.07.07,0,.12.01.17.04s.08.07.11.12.05.1.07.16.02.13.02.2c0,.03,0,.07,0,.1,0,.04-.01.08-.02.13,0,.04-.01.08-.03.12-.01.04-.02.07-.04.1l-.23-.05c.02-.07.04-.14.06-.21.01-.07.02-.15.02-.21,0-.07,0-.13-.03-.16s-.05-.05-.09-.05-.07,0-.08.03-.04.07-.06.12c-.01.05-.04.1-.05.16-.02.05-.04.11-.06.18-.03.09-.07.16-.12.2-.05.04-.11.07-.2.07-.07,0-.13-.01-.18-.05s-.09-.07-.12-.13c-.03-.05-.05-.11-.07-.18s-.02-.13-.02-.19v-.13c0-.08.02-.15.04-.21.02-.07.04-.13.07-.18l.23.07c-.04.07-.06.16-.07.22-.02.07-.03.15-.03.23,0,.07,0,.13.02.18h0v.04Z"/>
      <path class="st8" d="M664.51,1271.46s.02.06.03.09l-.21.06c-.03-.05-.05-.1-.07-.15s-.02-.1-.02-.15c0-.12.03-.19.08-.24s.13-.07.24-.07h.71v-.16h.24v.45h-.95s-.05,0-.06.01c-.01,0-.02.03-.02.07,0,.02,0,.05,0,.07h.01ZM665.81,1271h.32v.32h-.32v-.32Z"/>
      <path class="st8" d="M664.28,1272.62h.85c.07,0,.11-.01.15-.04.03-.03.05-.07.05-.13,0-.07-.02-.15-.06-.21-.04-.06-.07-.11-.12-.15h-.86v-.29h1.24v.26l-.11.02c.04.06.08.13.11.19s.04.15.04.22c0,.14-.04.24-.1.31-.07.07-.16.1-.28.1h-.9v-.29h-.01Z"/>
      <path class="st8" d="M664.37,1274.26c-.04-.05-.07-.1-.09-.18-.02-.07-.03-.16-.03-.25,0-.2.05-.36.16-.47.11-.11.27-.16.48-.16.13,0,.24.02.32.05.09.04.15.08.2.15s.09.13.1.21.03.16.03.24,0,.16-.04.23-.05.14-.07.18l-.22-.07c.02-.05.04-.11.06-.18s.02-.12.02-.17c0-.13-.04-.22-.11-.27-.07-.05-.18-.07-.3-.07-.14,0-.24.03-.3.09-.07.06-.1.15-.1.26,0,.06,0,.12.02.18,0,.06.04.12.07.18l-.21.07h0Z"/>
      <path class="st8" d="M664.52,1275.33c.01.07.04.15.07.21l-.21.07c-.03-.07-.06-.13-.09-.22-.02-.09-.04-.17-.04-.24,0-.21.05-.38.15-.49s.27-.16.51-.16c.21,0,.36.05.48.15s.18.26.18.47c0,.19-.04.33-.13.43-.09.1-.19.14-.31.13-.13,0-.23-.05-.27-.13s-.07-.18-.07-.31v-.44c-.1,0-.18.02-.22.07s-.07.15-.07.28c0,.05,0,.11.02.18h0ZM665.23,1274.88c-.05-.06-.12-.09-.21-.09v.44c0,.05,0,.09.04.1s.05.03.1.03c.05,0,.09-.02.12-.07s.04-.11.04-.19c0-.09-.02-.17-.07-.23h-.01Z"/>
      <path class="st8" d="M664.28,1277.82v-1.17h.23l.72.62c.08.07.16.13.23.16s.15.04.24.03c.07-.01.12-.05.15-.1.02-.05.04-.1.04-.16,0-.07,0-.15-.04-.23s-.05-.16-.07-.23l.23-.07c.03.07.06.16.09.24s.04.19.04.3c0,.12-.02.22-.07.32-.04.09-.1.16-.2.2-.07.04-.15.05-.22.04-.07,0-.14-.01-.21-.04s-.13-.06-.19-.1c-.07-.04-.12-.08-.17-.13l-.55-.47v.79h-.24,0Z"/>
      <path class="st8" d="M664.78,1279.32c-.12-.02-.21-.05-.29-.1s-.13-.11-.18-.19c-.04-.08-.06-.18-.06-.31s.02-.23.06-.32.1-.15.18-.19c.07-.05.18-.07.29-.1s.25-.02.4-.02.27,0,.38.02.21.04.3.09c.08.04.15.1.19.19s.07.19.07.32-.02.24-.07.32-.1.15-.19.19c-.08.04-.18.07-.3.09s-.24.02-.38.02c-.16,0-.29,0-.41-.03h0ZM665.5,1279.04c.09,0,.16-.02.21-.05.06-.02.1-.07.12-.1.02-.04.04-.1.04-.16s-.01-.12-.04-.16-.07-.07-.12-.1-.13-.04-.21-.05-.19-.01-.32-.01-.23,0-.32.01c-.09,0-.16.02-.21.05s-.09.06-.11.1-.04.1-.04.16,0,.12.04.16.07.07.11.1c.05.02.13.04.21.05.09,0,.19.01.32.01s.23,0,.32-.01Z"/>
      <path class="st8" d="M664.28,1280.79v-1.17h.23l.72.62c.08.07.16.13.23.16s.15.04.24.03c.07-.01.12-.05.15-.1.02-.05.04-.1.04-.16,0-.07,0-.15-.04-.23s-.05-.16-.07-.23l.23-.07c.03.07.06.16.09.24s.04.19.04.3c0,.12-.02.22-.07.32-.04.09-.1.16-.2.2-.07.04-.15.05-.22.04-.07,0-.14-.01-.21-.04s-.13-.06-.19-.1c-.07-.04-.12-.08-.17-.13l-.55-.47v.79h-.24,0Z"/>
      <path class="st8" d="M664.65,1282.37v-.19h-.38v-.3h.38v-.86h.24l1.21.85v.31h-1.21v.19h-.24,0ZM664.9,1281.88h.78l-.78-.54v.54Z"/>
    </g>
  </g>
  <polygon class="st4" points="701.92 1289.9 684.62 1289.9 684.62 339.57 345.55 65.62 22.95 337.94 22.95 1289.9 5.66 1289.9 5.66 329.91 345.31 43.19 701.92 331.31 701.92 1289.9"/>
  <g>
    <g>
      <path class="st2" d="M188.9,297.86c3.19,0,6.25.6,9.16,1.8,2.91,1.2,5.48,2.91,7.7,5.14,2.23,2.23,3.99,4.96,5.31,8.22,1.31,3.25,1.97,6.99,1.97,11.21,0,3.88-.54,7.34-1.63,10.36-1.09,3.03-2.6,5.65-4.54,7.88-1.94,2.23-4.19,4.02-6.76,5.39-2.57,1.37-5.28,2.23-8.13,2.57v26.37h29.28v5.48h-64.72v-5.48h29.62v-26.37c-2.97-.34-5.74-1.17-8.3-2.48-2.57-1.31-4.82-3.08-6.76-5.31-1.94-2.23-3.48-4.88-4.62-7.96-1.14-3.08-1.71-6.56-1.71-10.44,0-4.22.65-7.96,1.97-11.21,1.31-3.25,3.08-5.99,5.31-8.22s4.79-3.94,7.7-5.14c2.91-1.2,5.96-1.8,9.16-1.8ZM168.36,400.25v38.3c0,1.44,1.17,2.61,2.61,2.61h47.21v5.48h-48.66c-3.86,0-6.99-3.13-6.99-6.99v-39.41h5.82ZM188.9,303.34c-5.25,0-9.62,1.86-13.1,5.56-3.48,3.71-5.22,8.82-5.22,15.32s1.74,11.62,5.22,15.32c3.48,3.71,7.85,5.56,13.1,5.56s9.61-1.85,13.1-5.56c3.48-3.71,5.22-8.82,5.22-15.32s-1.74-11.61-5.22-15.32c-3.48-3.71-7.85-5.56-13.1-5.56Z"/>
      <path class="st2" d="M271.3,299.4v135.43h-23.77c-3.23,0-5.85-2.62-5.85-5.85v-129.57h29.62ZM250.2,429.53h15.28v-124.81h-17.98v122.12c0,1.49,1.21,2.7,2.7,2.7ZM294.76,295.64v61.46h13.53v5.31h-13.53v84.58h-5.82v-151.35h5.82Z"/>
      <g>
        <path class="st2" d="M384.57,362.24v5.48h-64.72v-5.48h64.72ZM352.38,295.47c3.31,0,6.42.57,9.33,1.71,2.91,1.14,5.48,2.8,7.7,4.97s3.99,4.79,5.31,7.87c1.31,3.08,1.97,6.57,1.97,10.44s-.66,7.36-1.97,10.44c-1.31,3.08-3.08,5.71-5.31,7.88-2.23,2.17-4.79,3.83-7.7,4.96-2.91,1.14-6.02,1.71-9.33,1.71s-6.48-.57-9.5-1.71c-3.02-1.14-5.65-2.79-7.87-4.96-2.23-2.17-4-4.79-5.31-7.88-1.31-3.08-1.97-6.56-1.97-10.44s.66-7.36,1.97-10.44c1.31-3.08,3.08-5.71,5.31-7.87,2.22-2.17,4.85-3.82,7.87-4.97,3.02-1.14,6.19-1.71,9.5-1.71ZM352.38,300.95c-5.48,0-9.99,1.74-13.53,5.22-3.54,3.48-5.31,8.25-5.31,14.3s1.77,10.82,5.31,14.3c3.54,3.48,8.05,5.22,13.53,5.22s9.64-1.74,13.18-5.22c3.54-3.48,5.31-8.25,5.31-14.3s-1.77-10.81-5.31-14.3c-3.54-3.48-7.93-5.22-13.18-5.22Z"/>
        <path class="st1" d="M370.01,393.85h-43.01v-4.59h45.03c1.69,0,2.95.4,3.8,1.19.84.79,1.32,1.72,1.42,2.77,0,.95-.29,1.93-.87,2.93-.58,1-1.4,1.66-2.45,1.98l-38.18,17.11c-.61.2-.47,1.09.17,1.09h35.95c1.69,0,2.98.4,3.88,1.19.89.79,1.4,1.66,1.5,2.61.1,1.06-.11,2.03-.63,2.93-.53.9-1.27,1.45-2.22,1.66l-36.06,16.66c-1.03.34-.79,1.86.3,1.86h38.45v4.75h-45.19c-1.9,0-3.3-.4-4.2-1.19-.9-.79-1.4-1.77-1.5-2.93-.11-1.06.16-2.09.79-3.09.63-1,1.58-1.66,2.85-1.98l36.61-16.55c.83-.27.64-1.5-.24-1.5h-34.47c-1.9,0-3.27-.37-4.12-1.11-.85-.74-1.32-1.63-1.42-2.69,0-.95.29-1.9.87-2.85.58-.95,1.35-1.58,2.3-1.9l40.73-17.79c.32-.1.24-.57-.09-.57Z"/>
      </g>
    </g>
    <g>
      <path class="st2" d="M422.45,297.69v107.18l19.35,27.22-4.45,3.77-17.81-25.17-17.81,25.17-4.45-3.77,19.35-27.22v-107.18h5.82ZM458.06,295.64v151.35h-5.82v-151.35h5.82Z"/>
      <path class="st2" d="M519.02,298.89v5.48h-16.78v36.64l19.69,26.71-4.28,3.77-18.32-24.65-18.32,24.65-4.28-3.77,19.69-26.71v-36.64h-17.12v-5.48h39.72ZM512.17,389.97c3.77,0,7.28.63,10.53,1.88,3.25,1.26,6.1,3.14,8.56,5.65,2.45,2.51,4.39,5.59,5.82,9.25,1.43,3.66,2.14,7.88,2.14,12.67s-.71,9.01-2.14,12.67c-1.43,3.65-3.37,6.73-5.82,9.24-2.46,2.51-5.31,4.39-8.56,5.65-3.25,1.26-6.76,1.88-10.53,1.88s-7.28-.63-10.53-1.88c-3.25-1.26-6.11-3.14-8.56-5.65-2.46-2.51-4.4-5.59-5.82-9.24-1.43-3.66-2.14-7.88-2.14-12.67s.71-9.01,2.14-12.67c1.43-3.65,3.37-6.73,5.82-9.25,2.45-2.51,5.31-4.39,8.56-5.65,3.25-1.25,6.76-1.88,10.53-1.88ZM512.17,395.45c-6.28,0-11.39,2.08-15.32,6.25-3.94,4.17-5.91,10.07-5.91,17.72s1.97,13.55,5.91,17.72c3.94,4.16,9.05,6.25,15.32,6.25s11.39-2.08,15.32-6.25c3.94-4.17,5.91-10.07,5.91-17.72s-1.97-13.55-5.91-17.72c-3.94-4.16-9.05-6.25-15.32-6.25ZM536.65,295.3v36.81h14.38v5.31h-14.38v45.03h-5.82v-87.15h5.82Z"/>
    </g>
  </g>
</svg>