<?xml version="1.0" encoding="UTF-8"?>
<svg id="_레이어_1" xmlns="http://www.w3.org/2000/svg" version="1.1" viewBox="0 0 708.66 1352.39">
  <!-- Generator: Adobe Illustrator 29.2.1, SVG Export Plug-In . SVG Version: 2.1.0 Build 116)  -->
  <defs>
    <style>
      .st0 {
        fill: #f19ca6;
      }

      .st1 {
        fill: #9fcf86;
      }

      .st2 {
        fill: #fcc800;
      }

      .st3 {
        fill: #82c1ea;
      }

      .st4 {
        fill: #7ac281;
      }

      .st5 {
        fill: #eb5c28;
      }

      .st6 {
        fill: #551f11;
      }

      .st7 {
        fill: #9ac838;
      }

      .st8 {
        fill: #fdd23e;
      }

      .st9 {
        fill: #fabe00;
      }
    </style>
  </defs>
  <g>
    <g>
      <path class="st6" d="M584.98,1305.06c.1.19.17.39.19.59.03.2,0,.41-.06.61-.07.21-.18.4-.35.59s-.35.33-.54.42-.4.14-.6.13c-.2,0-.41-.04-.6-.12-.2-.09-.39-.2-.57-.37-.18-.16-.31-.33-.43-.52-.11-.19-.18-.39-.2-.59-.03-.2,0-.41.06-.62.07-.2.18-.41.35-.59.16-.18.35-.32.54-.41s.4-.13.6-.13.41.04.61.12c.2.09.39.2.57.36s.32.33.43.52h0ZM583.73,1304.85c-.12-.06-.25-.09-.37-.1-.12-.01-.24,0-.36.05-.12.04-.22.12-.31.22-.1.11-.16.22-.18.34-.03.12-.03.24,0,.36s.08.24.15.35.16.22.28.31c.11.1.23.18.35.24.12.06.24.09.37.1s.24,0,.35-.05.22-.12.31-.22c.09-.1.16-.22.18-.34.03-.12.03-.24,0-.36s-.07-.24-.14-.35-.16-.22-.28-.32-.22-.17-.35-.23ZM586.38,1303.22l-.6.67,2,1.77-.48.55-3.82-3.37.48-.55,1.36,1.2.6-.67.46.41h0Z"/>
      <path class="st6" d="M589.14,1301.01c.09.2.12.41.12.61s-.04.4-.13.6-.23.37-.41.54c-.19.16-.39.28-.6.35s-.41.09-.61.06c-.2-.02-.39-.09-.58-.2-.19-.11-.36-.26-.52-.43s-.28-.37-.36-.56c-.09-.2-.12-.41-.12-.61s.05-.41.13-.6.23-.38.41-.54.38-.28.59-.34.41-.08.62-.05.4.09.59.2c.19.1.37.25.52.43.16.18.28.37.36.58h0ZM587.92,1300.64c-.12-.07-.24-.12-.35-.15s-.24-.03-.36,0-.24.09-.34.18c-.11.1-.18.2-.22.31-.04.12-.06.24-.05.35.01.12.05.24.1.37.06.12.14.24.24.35.1.11.2.2.31.28.11.07.23.12.35.15.12.03.24.03.35,0s.23-.09.34-.18c.1-.09.18-.2.22-.31s.06-.24.05-.35c-.01-.12-.05-.24-.1-.37-.06-.12-.14-.24-.24-.35-.1-.11-.2-.2-.32-.28h0ZM592.01,1301.8l-.55.48-3.37-3.82.55-.48,3.37,3.82Z"/>
      <path class="st6" d="M593.31,1295.28l-2.31,1.57.32.47c.04.05.07.09.12.1.04.01.09,0,.16-.05l1.1-.75c.2-.14.38-.28.53-.41s.29-.29.42-.45l.43.36c-.12.16-.26.33-.43.48-.17.16-.37.32-.62.49l-1.26.86c-.22.15-.41.22-.56.22s-.29-.11-.43-.31l-.72-1.05,2.92-1.99.32.47h0ZM595.22,1296.72l-4.07,2.78-.33-.48,4.07-2.78.33.48ZM593.26,1301.25c-.11,0-.22-.08-.31-.22l-.56-.83,2.46-1.68-.2-.29-2.46,1.68-.31-.46,2.73-1.87c.13-.09.25-.12.35-.08s.18.12.24.23l.38.71c.03.06.04.1.04.15,0,.04-.04.09-.1.12l-2.2,1.5.2.29,1.77-1.21c.1-.07.22-.15.33-.24.11-.09.22-.19.33-.31l.4.35c-.14.17-.28.31-.4.41-.12.1-.25.2-.38.28l-1.92,1.31c-.14.09-.26.14-.37.14v.02Z"/>
      <path class="st6" d="M598.35,1294.89c.03.22.02.43-.03.62-.05.2-.14.38-.28.55-.14.17-.31.31-.54.43s-.45.18-.66.19-.42-.02-.6-.09c-.19-.07-.36-.18-.52-.33s-.29-.33-.4-.54c-.1-.21-.18-.42-.21-.64s-.02-.43.03-.62c.05-.2.14-.38.28-.55s.31-.31.54-.43.44-.18.65-.19.42.02.61.1c.19.07.37.18.52.33s.29.33.4.54c.11.21.18.43.21.64ZM597.26,1294.23c-.09-.1-.2-.18-.31-.23s-.23-.09-.35-.09c-.12,0-.25.03-.37.09-.13.07-.23.15-.29.26-.07.1-.11.22-.13.33s-.01.25.01.38c.03.13.08.27.14.39.07.13.15.25.24.35s.19.18.3.23c.11.05.22.09.35.09.12,0,.25-.03.37-.1s.22-.14.29-.25c.07-.1.12-.21.14-.33.02-.12.02-.25,0-.38-.03-.13-.07-.27-.14-.4-.07-.13-.14-.24-.24-.34h-.01ZM600.94,1296.35l-.65.33-2.33-4.53.65-.33,2.33,4.53Z"/>
      <path class="st6" d="M604.42,1290.67l-.36.12c.08.07.14.15.21.24.06.09.11.19.14.3.06.18.07.34.06.5-.02.16-.07.31-.14.45-.08.13-.18.25-.3.35s-.26.17-.42.22c-.16.05-.32.07-.48.07-.16,0-.31-.05-.45-.11-.14-.07-.26-.16-.37-.28s-.18-.27-.24-.44c-.03-.11-.05-.22-.06-.33,0-.1,0-.22.03-.31l-.35.11-.18-.54.94-.3c.02-.07.02-.14,0-.22-.01-.07-.03-.13-.05-.2l-.05-.09s-.05-.07-.07-.1l.56-.38c.04.05.07.1.1.16.03.05.05.1.07.16.03.09.04.17.05.25,0,.08,0,.16,0,.22l1.17-.37.17.54h.01ZM603.51,1291.15c-.13-.07-.28-.09-.44-.03s-.28.14-.34.28c-.07.14-.07.29-.02.46.06.18.16.31.29.38s.28.08.45.03c.16-.05.28-.14.34-.28.07-.14.07-.29,0-.48-.05-.17-.15-.29-.28-.37h0ZM607.29,1293.83c-.03.18-.09.35-.18.5-.1.16-.22.29-.38.41s-.33.2-.52.27c-.2.07-.39.09-.59.09s-.38-.04-.54-.1-.31-.17-.44-.3-.22-.29-.28-.48c-.06-.19-.08-.38-.05-.56.03-.18.09-.35.18-.5s.23-.29.39-.41c.16-.12.33-.21.54-.27.2-.07.39-.09.59-.09.2,0,.37.04.54.1.16.07.31.17.44.3s.22.29.28.48c.06.19.08.37.05.56h-.01ZM607.13,1292.03l-.63.2-.41-1.29-.53.17.33,1.02-.64.2-.88-2.73.64-.2.37,1.16.53-.17-.37-1.16.63-.2.96,3h0ZM606.17,1293.06c-.18-.09-.39-.09-.6-.03-.22.07-.39.2-.48.37-.1.18-.12.37-.05.58s.19.36.37.44c.18.09.39.09.61.01.22-.07.38-.19.48-.37.1-.17.12-.37.05-.58s-.19-.35-.37-.44h0Z"/>
      <path class="st6" d="M611.46,1287.89l.33,1.79c-.14.12-.33.24-.57.37-.24.12-.46.2-.69.24l-.09.02.09.47,2.11-.39.1.56-4.84.9-.1-.56,2-.37-.09-.47-.63.12c-.23.04-.42.03-.57-.03-.16-.06-.25-.2-.29-.43l-.29-1.57.71-.13.1.54,2.1-.39-.1-.54.71-.13h0ZM612.49,1293.44l-.67.12-.2-1.11c-.01-.08-.04-.14-.07-.16-.03-.03-.09-.04-.16-.03l-2.77.52-.1-.58,3.24-.6c.17-.03.29-.01.38.07.09.07.14.18.16.33l.2,1.44h0ZM610.68,1289.65c.11-.05.22-.1.33-.18l-.07-.37-2.1.39.07.37c.01.06.03.1.06.12.03.02.08.02.14.01l1.24-.23c.12-.02.23-.05.34-.1h0Z"/>
      <path class="st6" d="M616.4,1288.59l-3.29.19-.03-.58,1.18-.07c.03-.06.05-.13.06-.2.01-.07,0-.15-.01-.25,0-.03-.01-.06-.03-.1-.01-.05-.03-.09-.04-.12l.69-.25c.03.07.05.12.07.2.02.07.03.13.03.19,0,.09,0,.18-.02.26s-.04.16-.08.24l1.41-.09.03.58h.01ZM616.13,1290.32c-.07.14-.16.26-.28.36-.12.1-.27.18-.43.24s-.34.09-.53.1-.37,0-.54-.04-.32-.1-.45-.18-.24-.2-.31-.33c-.08-.13-.12-.29-.14-.47-.01-.18.01-.33.08-.47.06-.14.15-.26.27-.36s.26-.18.43-.24c.16-.06.35-.09.54-.1.4-.03.73.05,1.01.24.28.18.42.44.44.79.01.18-.02.34-.09.48h0ZM614.38,1292.97c-.1-.12-.16-.26-.16-.43l-.07-1.13.73-.04.06,1c0,.06.02.1.04.13.02.03.07.04.12.03l1.52-.09c.26-.01.48-.04.67-.08.2-.04.41-.1.65-.18l.17.54c-.28.1-.51.18-.71.22-.2.04-.43.07-.67.09l-1.82.1c-.26.01-.43-.03-.54-.15v-.02ZM615.28,1289.5c-.14-.08-.3-.1-.48-.1-.18.01-.34.06-.46.15s-.18.23-.18.41c.01.19.09.32.22.4.14.07.29.1.48.09.19-.01.35-.06.47-.15.12-.09.18-.23.18-.42-.01-.18-.09-.31-.22-.39h0ZM618.6,1289.62l-.88.05.1,1.69-.73.04-.22-3.9.73-.04.09,1.62.88-.05.03.59Z"/>
      <path class="st6" d="M622.61,1293.02l.16-1.55-2.06-.22.06-.58,4.9.52-.06.58-2.09-.22-.16,1.55-.75-.08h0ZM625.07,1290.13c-.27.09-.54.15-.83.18s-.6.03-.92,0l-1-.1c-.28-.03-.48-.11-.62-.24s-.19-.31-.16-.56l.18-1.72,3.58.38-.22,2.06h0ZM622.28,1289.35c0,.09,0,.16.03.2s.1.06.19.07l.86.09c.18.02.35.02.51,0s.33-.04.51-.09l.11-1.05-2.12-.22-.1,1h0Z"/>
      <path class="st6" d="M629.11,1291.52c-.1.12-.23.2-.37.27-.14.06-.31.1-.48.1s-.35,0-.54-.05-.35-.11-.51-.19c-.15-.09-.28-.18-.38-.31-.1-.12-.17-.26-.21-.41s-.04-.31,0-.49c.04-.17.11-.31.21-.43s.22-.21.36-.27c.14-.07.3-.1.48-.11.18,0,.36,0,.55.05.39.09.69.26.9.51.21.25.28.54.2.88-.04.18-.11.32-.22.43h0ZM626.67,1293.56c-.07-.14-.07-.29-.03-.46l.26-1.1.71.17-.23.97c-.01.06-.01.1,0,.14.01.03.05.05.11.07l1.48.35c.25.06.47.1.67.12.2.02.43.02.67.01v.57c-.28.02-.53.03-.73,0s-.43-.05-.67-.11l-1.77-.42c-.25-.06-.41-.16-.47-.29h0ZM629.86,1289.93l-3.2-.75.13-.56,1.15.27c.05-.05.09-.1.12-.17s.05-.14.06-.24v-.24l.74-.05c.01.07.01.14.01.21s0,.13-.02.19c-.02.09-.05.17-.09.24-.04.08-.09.14-.14.21l1.38.33-.13.56h-.01ZM628.53,1290.49c-.11-.11-.26-.19-.44-.23-.18-.04-.34-.04-.49.01-.15.05-.24.16-.28.34-.05.18-.01.33.1.45.11.11.26.18.43.23.18.05.35.04.49,0,.14-.05.24-.16.29-.35.04-.18,0-.32-.1-.43h0ZM631.67,1291.55l-.86-.2-.39,1.65-.71-.16.9-3.8.71.16-.37,1.58.86.2-.14.57h0Z"/>
      <path class="st6" d="M634.54,1290.14c.01.15,0,.28,0,.39-.02.11-.05.23-.09.36-.03.09-.07.16-.11.24-.04.08-.09.16-.14.23.18.08.31.16.39.27.09.1.15.22.2.35.05.17.1.34.15.52.05.18.1.35.14.52l-.62.2c-.03-.1-.05-.2-.08-.29-.02-.09-.05-.18-.07-.26-.02-.08-.04-.16-.06-.22s-.04-.13-.05-.2c-.03-.1-.08-.19-.12-.27s-.13-.15-.24-.22c-.22.19-.48.35-.77.49-.29.14-.6.24-.93.31l-.17-.65c.49-.1.88-.27,1.18-.5.29-.22.5-.48.61-.79.03-.08.05-.16.07-.25.01-.09.01-.18.01-.28l.71.03h0ZM637.05,1291.18l-.46,1.2.83.31-.2.54-.83-.31-.24.62c-.09.22-.19.39-.32.51-.13.12-.29.21-.46.27.05.14.07.28.07.43s-.03.29-.09.45c-.07.19-.18.34-.31.46-.14.12-.29.22-.46.28-.18.06-.36.09-.55.09-.2,0-.39-.05-.58-.12-.2-.07-.37-.17-.52-.3-.15-.12-.27-.27-.36-.43-.09-.16-.14-.33-.16-.51-.02-.18,0-.37.08-.56.07-.19.17-.35.31-.47.14-.12.29-.22.46-.29.18-.06.36-.09.56-.09.2,0,.39.04.59.12.13.05.26.11.36.19.11.08.21.16.29.26.09-.05.17-.11.23-.2.06-.09.12-.2.18-.35l.89-2.36.68.26h0ZM634.66,1294.34c-.09-.18-.23-.31-.45-.4s-.43-.09-.61,0c-.19.08-.32.23-.41.45-.08.22-.08.41.01.6s.24.31.46.4c.22.08.41.09.6,0,.18-.08.31-.23.39-.44.08-.22.08-.41,0-.6h0Z"/>
      <path class="st6" d="M640.21,1292.58c0,.15-.03.28-.06.39-.03.1-.08.22-.14.35-.04.08-.09.16-.14.23-.05.07-.1.14-.17.21.16.1.28.2.36.31.07.11.12.24.15.37.03.18.05.35.09.53.03.18.05.35.07.53l-.64.12c-.01-.11-.03-.21-.04-.3s-.03-.18-.04-.26c0-.09-.02-.16-.03-.23-.01-.07-.02-.14-.03-.2-.02-.1-.05-.2-.09-.28s-.1-.16-.21-.25c-.24.16-.52.29-.83.39-.31.1-.63.16-.96.2l-.09-.67c.5-.04.91-.16,1.23-.34s.56-.42.71-.7c.04-.07.07-.16.1-.24.03-.09.04-.18.05-.27l.7.12h0ZM642.56,1293.94l-.61,1.14.79.42-.28.51-.79-.42-.31.59c-.11.21-.24.36-.38.46-.14.1-.31.17-.5.2.03.14.03.28.01.43s-.07.29-.14.43c-.09.18-.22.32-.37.43s-.31.18-.49.22c-.18.04-.37.05-.56.01-.19-.03-.38-.09-.56-.19-.18-.1-.34-.22-.48-.36-.13-.14-.24-.3-.3-.47-.07-.16-.1-.34-.09-.52s.06-.37.15-.54c.09-.18.22-.32.37-.43.15-.11.31-.18.49-.22.18-.04.37-.05.56-.01.2.03.39.09.57.19.12.07.24.14.33.24s.19.18.26.29c.1-.03.18-.09.26-.16.07-.08.14-.18.22-.33l1.19-2.23.64.34v-.02ZM639.77,1296.76c-.06-.19-.19-.34-.39-.45-.21-.11-.41-.14-.6-.08s-.35.18-.46.39c-.11.2-.13.4-.07.59.07.19.2.34.41.45.2.11.4.14.59.08.19-.05.34-.18.45-.39.11-.2.13-.4.07-.6h0Z"/>
      <path class="st6" d="M642.89,1300.64c-.03-.11,0-.23.11-.37l.61-.79,2.37,1.82.21-.28-2.37-1.82.34-.45,2.62,2.01c.13.1.19.2.18.3,0,.1-.05.2-.14.29l-.56.58s-.09.07-.13.09c-.04,0-.09,0-.15-.05l-2.12-1.62-.22.28,1.7,1.31c.1.08.21.16.33.24s.25.15.4.22l-.2.48c-.21-.08-.38-.16-.51-.25-.14-.09-.26-.18-.39-.27l-1.85-1.41c-.13-.1-.22-.2-.25-.31h0ZM646.71,1296.67l-.64.84c-.04.05-.06.1-.07.14,0,.05.02.09.08.12l.88.67c.18.14.38.28.62.43.24.15.48.26.75.35l-.23.52c-.27-.09-.5-.2-.72-.33-.21-.12-.42-.27-.62-.42l-.26.34,1.68,1.29-.35.45-3.9-3,.35-.45,1.64,1.26.26-.34-.61-.46c-.19-.14-.29-.29-.31-.44-.02-.14.03-.3.16-.46l.73-.96.58.45h0Z"/>
      <path class="st6" d="M650.52,1303.49c-.2.1-.39.15-.6.16-.2.02-.41-.01-.61-.09s-.39-.2-.57-.37c-.18-.18-.31-.37-.39-.56-.08-.2-.11-.41-.1-.6,0-.2.06-.4.15-.6.09-.2.23-.38.39-.55.16-.16.35-.3.54-.4.2-.1.39-.16.6-.17s.41.01.61.09c.2.07.39.2.57.37.18.17.3.36.38.56.08.2.11.41.1.61-.01.2-.07.41-.16.6s-.22.38-.39.55c-.17.17-.35.3-.54.4h0ZM650.81,1302.25c.07-.12.1-.24.12-.36s0-.24-.03-.36-.1-.23-.2-.33c-.1-.1-.22-.17-.33-.2s-.24-.04-.36-.02c-.12.02-.24.07-.36.13s-.23.16-.33.26c-.1.1-.19.22-.26.33-.07.12-.1.24-.12.36-.02.12,0,.24.03.35s.1.22.21.33c.1.1.21.16.33.2.12.03.24.05.36.03.12-.02.24-.06.36-.12s.23-.15.33-.26c.1-.1.18-.22.25-.33h0ZM649.94,1306.41l-.52-.52,3.58-3.63.52.52-3.58,3.63Z"/>
      <path class="st6" d="M655.7,1305.73l-2.61,2.06c-.2-.07-.38-.14-.56-.24s-.33-.23-.46-.4l-.35-.45c-.14-.18-.2-.34-.2-.49,0-.16.1-.3.27-.43l2.43-1.92.43.54-.98.77.65.82.98-.77.42.52h-.01ZM652.71,1306.92c.09.07.18.1.26.11l.86-.68-.65-.82-.88.7s-.07.07-.08.1c0,.03.01.07.05.12l.23.29c.04.05.1.11.2.18h0ZM652.32,1309.1l3.9-3.08.43.54-1.43,1.13.41.52,1.43-1.13.43.54-3.99,3.16-.43-.54,2.07-1.64-.41-.52-1.97,1.56-.43-.54Z"/>
      <path class="st6" d="M657.97,1314.36l-1.11-1.84-.31.19.58.97c.08.12.1.24.06.34s-.14.19-.3.28l-1.14.56c-.07.03-.13.04-.18.01-.05-.02-.1-.07-.14-.14l-1.33-2.2c-.1-.18-.16-.35-.17-.53s.09-.33.3-.45l1.19-.71.75,1.24.31-.19-1.05-1.74.49-.29,2.54,4.21-.49.29h0ZM655.73,1314.12l.72-.44-1.16-1.92-.55.33c-.07.04-.1.08-.11.12s0,.09.04.14l1.06,1.76h0ZM658.79,1312.57c-.18,0-.34-.02-.5-.09s-.31-.16-.45-.29-.26-.28-.37-.46c-.11-.18-.19-.36-.24-.54-.05-.18-.07-.37-.05-.54.01-.17.07-.33.16-.48s.22-.28.4-.38c.18-.1.35-.16.52-.17.17,0,.34.02.5.09s.31.16.45.3c.14.13.27.29.37.46.11.18.18.36.24.54.05.18.07.36.05.54-.02.17-.07.33-.16.48-.09.15-.22.28-.4.38-.18.1-.35.16-.52.17h0ZM659.22,1311.33c.03-.18-.02-.38-.14-.58-.12-.2-.27-.33-.45-.41-.18-.07-.35-.05-.52.05-.18.1-.28.26-.29.45s.03.39.15.58.27.33.44.39c.18.07.35.05.52-.06.17-.1.27-.25.29-.43h0Z"/>
    </g>
    <g>
      <rect class="st6" x="606.49" y="1311.46" width="2.55" height="6.94"/>
      <path class="st5" d="M612.84,1320.51h-10.14c-1.17,0-2.13-.95-2.13-2.13h0c0-1.17.95-2.13,2.13-2.13h10.14c1.17,0,2.13.95,2.13,2.13h0c0,1.17-.95,2.13-2.13,2.13Z"/>
      <path class="st6" d="M624.15,1339.81h-17.54c-2.48,0-4.7-1.77-5.01-4.24-.38-2.97,1.94-5.52,4.84-5.52h2.66c1.28,0,2.32-1.04,2.32-2.32v-.34c0-1.28-1.04-2.32-2.32-2.32h-7.26c-.71,0-1.28-.57-1.28-1.28h0c0-.71.57-1.28,1.28-1.28h7.26c2.7,0,4.88,2.19,4.88,4.88v.34c0,2.7-2.19,4.88-4.88,4.88h-2.57c-1.13,0-2.16.76-2.37,1.86-.29,1.49.84,2.79,2.28,2.79h17.71c.71,0,1.28.57,1.28,1.28h0c0,.71-.57,1.28-1.28,1.28h0Z"/>
      <g>
        <path class="st4" d="M625.43,1331.72c-4.38,0-7.94-3.56-7.94-7.94s3.56-7.94,7.94-7.94,7.94,3.56,7.94,7.94-3.56,7.94-7.94,7.94ZM625.43,1320.09c-2.04,0-3.69,1.66-3.69,3.69s1.66,3.69,3.69,3.69,3.69-1.66,3.69-3.69-1.66-3.69-3.69-3.69h0Z"/>
        <path class="st6" d="M638.11,1339.92h-2.55v-16.25c0-.71.57-1.28,1.28-1.28h0c.71,0,1.28.57,1.28,1.28v16.25Z"/>
        <path class="st7" d="M652.77,1339.84h-8.72c-1.17,0-2.13-.95-2.13-2.13v-13.2c0-1.17.95-2.13,2.13-2.13h8.72c1.17,0,2.13.95,2.13,2.13h0c0,1.17-.95,2.13-2.13,2.13h-6.59v8.94h6.59c1.17,0,2.13.95,2.13,2.13h0c0,1.17-.95,2.13-2.13,2.13Z"/>
        <path class="st7" d="M649.69,1333.25h-5.64v-4.26h5.64c1.17,0,2.13.95,2.13,2.13h0c0,1.17-.95,2.13-2.13,2.13Z"/>
        <path class="st3" d="M659.58,1332.4h-4c-.71,0-1.28-.57-1.28-1.28h0c0-.71.57-1.28,1.28-1.28h4v2.55Z"/>
        <path class="st6" d="M659.58,1339.92h0c-.71,0-1.28-.57-1.28-1.28v-14.98c0-.71.57-1.28,1.28-1.28h0c.71,0,1.28.57,1.28,1.28v14.98c0,.71-.57,1.28-1.28,1.28Z"/>
      </g>
      <path class="st9" d="M612.84,1314.28h-12.15v-8.83c0-1.17.95-2.13,2.13-2.13h0c1.17,0,2.13.95,2.13,2.13v4.57h7.9c1.17,0,2.13.95,2.13,2.13h0c0,1.17-.95,2.13-2.13,2.13h0Z"/>
    </g>
    <g>
      <g>
        <g>
          <circle class="st3" cx="561.72" cy="1310.59" r="6.62"/>
          <path class="st6" d="M561.73,1318.38c-4.29,0-7.78-3.49-7.78-7.78s3.49-7.78,7.78-7.78,7.78,3.49,7.78,7.78-3.49,7.78-7.78,7.78ZM561.73,1305.14c-3.01,0-5.46,2.45-5.46,5.46s2.45,5.46,5.46,5.46,5.46-2.45,5.46-5.46-2.45-5.46-5.46-5.46Z"/>
        </g>
        <g>
          <circle class="st1" cx="584.18" cy="1332.14" r="6.62"/>
          <path class="st6" d="M584.18,1339.92c-4.29,0-7.78-3.49-7.78-7.78s3.49-7.78,7.78-7.78,7.78,3.49,7.78,7.78-3.49,7.78-7.78,7.78ZM584.18,1326.68c-3.01,0-5.46,2.45-5.46,5.46s2.45,5.46,5.46,5.46,5.46-2.45,5.46-5.46-2.45-5.46-5.46-5.46Z"/>
        </g>
        <path class="st6" d="M590.8,1321.37h-17.33c-.64,0-1.16-.52-1.16-1.16s.52-1.16,1.16-1.16h17.33c.64,0,1.16.52,1.16,1.16s-.52,1.16-1.16,1.16Z"/>
        <path class="st6" d="M584.18,1321.37c-.64,0-1.16-.52-1.16-1.16v-3.63c0-.64.52-1.16,1.16-1.16s1.16.52,1.16,1.16v3.63c0,.64-.52,1.16-1.16,1.16Z"/>
        <polyline class="st8" points="573.47 1298.27 549.98 1298.27 561.73 1287.74 573.47 1298.27"/>
        <path class="st6" d="M573.47,1320.2"/>
        <path class="st6" d="M576.06,1312.35h-2.59c-.64,0-1.16-.52-1.16-1.16s.52-1.16,1.16-1.16h2.59c.64,0,1.16.52,1.16,1.16s-.52,1.16-1.16,1.16Z"/>
        <path class="st6" d="M597.48,1327.99h-2.59c-.64,0-1.16-.52-1.16-1.16s.52-1.16,1.16-1.16h2.59c.64,0,1.16.52,1.16,1.16s-.52,1.16-1.16,1.16Z"/>
        <path class="st6" d="M549.98,1339.92h-19.91c-.64,0-1.16-.52-1.16-1.16v-5.27c0-.64.52-1.16,1.16-1.16h2.51v-3.61c0-.64.52-1.16,1.16-1.16h2.24v-2.92c0-.64.52-1.16,1.16-1.16h2.87v-3.79c0-.64.52-1.16,1.16-1.16h2.96v-3.69c0-.64.52-1.16,1.16-1.16h4.68c.64,0,1.16.52,1.16,1.16s-.52,1.16-1.16,1.16h-3.52v3.69c0,.64-.52,1.16-1.16,1.16h-2.96v3.79c0,.64-.52,1.16-1.16,1.16h-2.87v2.92c0,.64-.52,1.16-1.16,1.16h-2.24v3.61c0,.64-.52,1.16-1.16,1.16h-2.51v2.95h18.75c.64,0,1.16.52,1.16,1.16s-.52,1.16-1.16,1.16h0Z"/>
        <path class="st6" d="M594.89,1339.92h-44.91c-.64,0-1.16-.52-1.16-1.16v-40.49c0-.64.52-1.16,1.16-1.16s1.16.52,1.16,1.16v39.33h42.58v-17.39c0-.64.52-1.16,1.16-1.16s1.16.52,1.16,1.16v18.55c0,.64-.52,1.16-1.16,1.16h0Z"/>
        <path class="st6" d="M573.47,1321.37c-.64,0-1.16-.52-1.16-1.16v-16.23c0-.64.52-1.16,1.16-1.16s1.16.52,1.16,1.16v16.23c0,.64-.52,1.16-1.16,1.16Z"/>
        <g>
          <polyline class="st0" points="561.73 1284.84 561.73 1277.91 569.63 1277.91 561.73 1284.84"/>
          <path class="st6" d="M561.73,1286.01c-.16,0-.33-.03-.48-.1-.41-.19-.68-.6-.68-1.06v-6.94c0-.64.52-1.16,1.16-1.16h7.9c.48,0,.92.3,1.09.75.17.45.04.96-.32,1.28l-7.9,6.94c-.22.19-.49.29-.77.29h0ZM562.89,1279.07v3.21l3.65-3.21h-3.65Z"/>
        </g>
        <path class="st6" d="M561.73,1288.89c-.64,0-1.16-.52-1.16-1.16v-3.46c0-.64.52-1.16,1.16-1.16s1.16.52,1.16,1.16v3.46c0,.64-.52,1.16-1.16,1.16Z"/>
      </g>
      <path class="st6" d="M573.47,1299.43h-23.5c-.48,0-.91-.29-1.09-.75-.17-.45-.05-.96.31-1.28l11.75-10.53c.44-.39,1.11-.39,1.55,0l11.75,10.53c.36.32.48.83.31,1.28-.17.45-.6.75-1.09.75h0ZM553.02,1297.1h17.42l-8.71-7.81-8.71,7.81Z"/>
    </g>
    <g>
      <path class="st6" d="M663.95,1323.51c.02.07.07.1.14.1.05,0,.09-.02.1-.05.03-.04.05-.08.07-.14l.13-.43c.05-.16.11-.27.19-.32.08-.06.18-.09.29-.09.09,0,.16.02.23.06s.11.09.15.16.07.14.09.22.03.18.03.27c0,.04,0,.09-.01.14,0,.05-.02.11-.03.17,0,.06-.02.11-.04.16-.02.05-.03.1-.05.14l-.31-.07c.03-.09.06-.19.08-.29.02-.1.03-.2.03-.29,0-.1-.01-.18-.04-.22s-.07-.07-.12-.07-.09.01-.11.04-.05.09-.08.16c-.02.07-.05.14-.07.21-.03.07-.05.15-.08.24-.04.12-.1.22-.16.27-.07.06-.15.09-.27.09-.1,0-.18-.02-.25-.07s-.12-.1-.16-.18c-.04-.07-.07-.15-.09-.24-.02-.09-.03-.18-.03-.26v-.09s0-.05,0-.08c0-.11.03-.2.05-.29.03-.09.06-.17.1-.24l.31.09c-.05.1-.08.21-.1.3-.03.1-.04.2-.04.31,0,.09.01.17.03.24h.01Z"/>
      <path class="st6" d="M663.93,1325.09s.03.08.04.12l-.28.08c-.04-.07-.07-.13-.09-.2-.02-.07-.03-.13-.03-.2,0-.16.04-.26.11-.32s.18-.09.33-.09h.96v-.21h.32v.61h-1.28s-.07,0-.08.02c-.02.01-.03.04-.03.09,0,.03,0,.07.01.1h0ZM665.69,1324.46h.43v.43h-.43v-.43Z"/>
      <path class="st6" d="M663.62,1326.65h1.15c.09,0,.15-.02.2-.06.04-.04.07-.1.07-.18,0-.1-.03-.2-.08-.28-.05-.08-.1-.15-.16-.2h-1.17v-.39h1.68v.35l-.15.03c.06.08.11.17.15.26s.06.2.06.3c0,.19-.05.33-.13.42-.09.09-.22.13-.38.13h-1.22v-.39h0Z"/>
      <path class="st6" d="M663.74,1328.88c-.05-.07-.09-.14-.12-.24-.03-.1-.04-.21-.04-.34,0-.27.07-.49.22-.64.15-.15.37-.22.65-.22.18,0,.33.03.44.07.12.05.2.11.27.2.07.09.12.18.14.28s.04.21.04.32-.01.21-.05.31-.07.19-.1.25l-.3-.1c.03-.07.06-.15.08-.24.02-.09.03-.16.03-.23,0-.18-.05-.3-.15-.37-.1-.07-.24-.1-.4-.1-.19,0-.33.04-.41.12-.09.08-.13.2-.13.35,0,.08,0,.16.03.24.01.08.05.16.09.25l-.29.1h0Z"/>
      <path class="st6" d="M663.95,1330.32c.02.1.05.2.09.29l-.29.1c-.04-.09-.08-.18-.12-.3-.03-.12-.05-.23-.05-.33,0-.29.07-.52.2-.67s.36-.22.69-.22c.28,0,.49.07.65.2s.24.35.24.63c0,.26-.06.45-.17.58-.12.13-.26.19-.42.18-.18-.01-.31-.07-.37-.18s-.09-.24-.09-.42v-.59c-.14,0-.24.03-.3.1-.06.07-.09.2-.09.38,0,.07.01.15.03.25h0ZM664.91,1329.71c-.07-.08-.16-.12-.28-.12v.6c0,.07.01.12.05.14s.07.04.13.04c.07,0,.12-.03.16-.1.04-.07.06-.15.06-.26,0-.12-.03-.23-.1-.31h0Z"/>
      <path class="st6" d="M663.62,1333.7v-1.58h.31l.98.84c.11.1.22.17.31.22s.2.06.32.04c.1-.02.16-.07.2-.14.03-.07.05-.14.05-.22,0-.1-.01-.2-.05-.31s-.07-.22-.1-.31l.31-.09c.04.1.08.21.12.33s.06.26.06.4c0,.16-.03.3-.09.43-.05.12-.14.21-.27.27-.1.05-.2.07-.3.06-.1,0-.19-.02-.28-.05s-.18-.08-.26-.14c-.09-.06-.16-.11-.23-.17l-.75-.64v1.07h-.33,0Z"/>
      <path class="st6" d="M664.3,1335.73c-.16-.03-.29-.07-.39-.14s-.18-.15-.24-.26c-.05-.11-.08-.25-.08-.42s.03-.31.08-.43.14-.2.24-.26c.1-.07.24-.1.39-.13s.34-.03.54-.03c.19,0,.37.01.52.03s.29.06.41.12c.11.06.2.14.26.26s.09.26.09.44-.03.32-.09.43-.14.2-.26.26c-.11.06-.25.1-.41.12s-.33.03-.52.03c-.21,0-.39-.01-.55-.04h0ZM665.28,1335.35c.12-.01.22-.03.29-.07.08-.03.13-.09.16-.14.03-.06.05-.13.05-.22s-.02-.16-.05-.22-.09-.1-.16-.14-.17-.05-.29-.07-.26-.02-.43-.02-.31,0-.43.02c-.12.01-.21.03-.28.07s-.12.08-.15.14c-.03.06-.05.13-.05.22s.01.16.05.22.09.1.15.14c.07.03.17.06.28.07.12.01.26.02.43.02s.31,0,.43-.02Z"/>
      <path class="st6" d="M663.62,1337.72v-1.58h.31l.98.84c.11.1.22.17.31.22s.2.06.32.04c.1-.02.16-.07.2-.14.03-.07.05-.14.05-.22,0-.1-.01-.2-.05-.31s-.07-.22-.1-.31l.31-.09c.04.1.08.21.12.33s.06.26.06.4c0,.16-.03.3-.09.43-.05.12-.14.21-.27.27-.1.05-.2.07-.3.06-.1,0-.19-.02-.28-.05s-.18-.08-.26-.14c-.09-.06-.16-.11-.23-.17l-.75-.64v1.07h-.33,0Z"/>
      <path class="st6" d="M664.13,1339.86v-.26h-.52v-.41h.52v-1.16h.32l1.64,1.15v.42h-1.64v.26h-.33,0ZM664.46,1339.2h1.05l-1.05-.73v.73Z"/>
    </g>
  </g>
  <polygon class="st2" points="701.92 1342.32 684.62 1342.32 684.62 303.74 345.55 29.79 22.95 302.11 22.95 1342.32 5.66 1342.32 5.66 294.08 345.31 7.36 701.92 295.48 701.92 1342.32"/>
</svg>